<?xml version="1.0" encoding="UTF-8"?>
<svg width="19px" height="19px" viewBox="0 0 19 19" version="1.1" xmlns="http://www.w3.org/2000/svg" xmlns:xlink="http://www.w3.org/1999/xlink">
    <!-- Generator: Sketch 54.1 (76490) - https://sketchapp.com -->
    <title>icon/我的/关于</title>
    <desc>Created with Sketch.</desc>
    <defs>
        <linearGradient x1="0%" y1="100%" x2="100%" y2="0%" id="linearGradient-1">
            <stop stop-color="#FFFFFF" offset="0%"></stop>
            <stop stop-color="#B9B9B9" offset="100%"></stop>
        </linearGradient>
    </defs>
    <g id="一席移动设计" stroke="none" stroke-width="1" fill="none" fill-rule="evenodd">
        <g id="规范/切图画板" transform="translate(-382.000000, -322.000000)">
            <g id="icon/我的/信息/常规" transform="translate(381.000000, 321.000000)">
                <g id="关于我们">
                    <rect id="Rectangle-path" fill="#000000" fill-rule="nonzero" opacity="0" x="0" y="0" width="21" height="21"></rect>
                    <circle id="Oval" fill="url(#linearGradient-1)" fill-rule="nonzero" cx="12.6875" cy="13.5625" r="4.8125"></circle>
                    <path d="M11.6505254,12.0266885 C11.395322,12.2700562 11.216102,12.4220237 11.0965172,12.5183895 C11.1549342,12.202875 11.3071366,11.577361 11.6737114,10.345567 C12.0386749,9.12533289 12.0700743,8.91224872 12.0700743,8.80762023 C12.0700743,8.62481965 11.9940124,8.46292122 11.8611447,8.35112908 C11.5628705,8.10554356 11.0369606,8.15400122 10.40188,8.51302751 C10.0479593,8.71127408 9.67201188,9.0350513 9.25195208,9.49538923 L9.03304077,9.73875697 L9.7596668,10.2982084 L9.94541032,10.1148386 C10.1477378,9.91882947 10.2849675,9.79106141 10.3765326,9.70570606 C9.82189568,11.5289033 9.55179829,12.6620942 9.55179829,13.1692411 C9.55179829,13.3994395 9.61850721,13.5905225 9.7535952,13.7353066 C9.8897639,13.8839965 10.0810288,13.961619 10.2998616,13.961619 C10.5143125,13.961619 10.7596127,13.8790506 11.057887,13.7100082 C11.3269037,13.5574912 11.7304778,13.2243325 12.2949393,12.6934965 L12.5242843,12.4743477 L11.8638956,11.8317391 L11.6505254,12.0266885 L11.6505254,12.0266885 Z M18.5647317,7.09015056 C18.1242367,6.04832075 17.4902369,5.11113907 16.688158,4.31049846 C15.8849199,3.50709053 14.9482836,2.87551199 13.9090984,2.43389769 C11.7492231,1.5220341 9.25409383,1.5220341 7.09305927,2.43389769 C6.05334348,2.87551201 5.11839702,3.50711017 4.31407819,4.31049846 C3.51084007,5.11278769 2.87684018,6.05108809 2.43803508,7.09015056 C1.9826461,8.17215568 1.75,9.3163962 1.75,10.499183 C1.75,11.6808512 1.98156539,12.8250721 2.43642385,13.9060173 C2.87575948,14.9461789 3.50975936,15.8822615 4.31291889,16.6878676 C5.1150763,17.4901372 6.05057293,18.1228148 7.09197857,18.5633497 C8.17360602,19.0209203 9.31917186,19.25 10.4994185,19.25 C11.6808244,19.25 12.82584,19.0209203 13.9080177,18.562231 C14.9494233,18.1217158 15.8849003,17.4901372 16.6870773,16.6878676 C17.4902369,15.8833802 18.123156,14.9461789 18.5630418,13.9054286 C19.0194919,12.8250524 19.2499962,11.6808119 19.2499962,10.4991634 C19.2510769,9.3163962 19.0206512,8.17215566 18.5647317,7.09015056 L18.5647317,7.09015056 Z M18.1363603,10.4992027 C18.1363603,14.7099552 14.711806,18.1349636 10.5005974,18.1349636 C6.29044993,18.1349636 2.86589561,14.7099552 2.86589561,10.4992027 C2.86589561,6.28676223 6.29044993,2.86232302 10.5005974,2.86232302 C14.711806,2.8623034 18.1363603,6.28676225 18.1363603,10.4992027 L18.1363603,10.4992027 Z M11.4228702,5.97399545 C11.2574635,6.15571656 11.1725791,6.37594474 11.1725791,6.63036216 C11.1725791,6.83959953 11.2403491,7.02185057 11.374376,7.16337676 C11.5105447,7.30708149 11.6869156,7.38087686 11.8881623,7.38087686 C12.0507985,7.38087686 12.2928172,7.33132013 12.5144008,7.08518506 C12.6874903,6.89908726 12.774595,6.67497304 12.774595,6.4255211 C12.774595,6.22122959 12.7040545,6.04227579 12.5694971,5.9034973 C12.2751526,5.60066149 11.7393396,5.63314322 11.4228702,5.97399545 L11.4228702,5.97399545 Z" id="Shape" fill="#000000" fill-rule="nonzero"></path>
                </g>
            </g>
        </g>
    </g>
</svg>