<?xml version="1.0" encoding="UTF-8"?>
<svg width="21px" height="20px" viewBox="0 0 21 20" version="1.1" xmlns="http://www.w3.org/2000/svg" xmlns:xlink="http://www.w3.org/1999/xlink">
    <!-- Generator: Sketch 54.1 (76490) - https://sketchapp.com -->
    <title>icon/video/留言/收起</title>
    <desc>Created with Sketch.</desc>
    <defs>
        <linearGradient x1="0%" y1="100%" x2="100%" y2="0%" id="linearGradient-1">
            <stop stop-color="#F7F7F7" offset="0%"></stop>
            <stop stop-color="#FA000D" offset="100%"></stop>
        </linearGradient>
    </defs>
    <g id="一席移动设计" stroke="none" stroke-width="1" fill="none" fill-rule="evenodd">
        <g id="规范/切图画板" transform="translate(-181.000000, -348.000000)">
            <g id="icon/video/留言/收起" transform="translate(180.000000, 346.000000)">
                <g id="评论" transform="translate(1.150000, 2.300000)">
                    <rect id="Rectangle" fill="#000000" opacity="0" x="0" y="0" width="17.25" height="19.55"></rect>
                    <g id="Group" transform="translate(5.750000, 0.000000)" fill="#333333">
                        <rect id="Rectangle" x="0" y="0" width="1.15" height="1.15" rx="0.5"></rect>
                    </g>
                    <path d="M10.35,19.55 C9.86575309,19.5495225 9.40149522,19.3336816 9.05929413,18.9499302 L6.44744118,16.0245902 L2.43529411,16.0245902 C1.09031831,16.0245902 1.64712031e-16,14.8034066 0,13.2970004 L0,2.72758981 C-1.64712031e-16,1.22118355 1.09031831,2.7672234e-16 2.43529411,0 L3.34852941,0 C3.68477336,2.3060195e-17 3.95735294,0.305295888 3.95735294,0.681897452 C3.95735294,1.05849901 3.68477336,1.3637949 3.34852941,1.3637949 L2.43529411,1.3637949 C1.76280621,1.3637949 1.21764705,1.97438668 1.21764705,2.72758981 L1.21764705,13.2970004 C1.21764705,14.0502035 1.76280621,14.6607953 2.43529411,14.6607953 L6.69705882,14.6607953 C6.85888593,14.6597473 7.01442706,14.7309035 7.12932353,14.8585455 L9.91773529,17.9884548 C10.032052,18.1175466 10.1876648,18.190159 10.35,18.190159 C10.5123352,18.190159 10.667948,18.1175466 10.7822647,17.9884548 L13.5706765,14.8585455 C13.6855729,14.7309035 13.8411141,14.6597473 14.0029412,14.6607953 L18.2647059,14.6607953 C18.9371938,14.6607953 19.4823529,14.0502035 19.4823529,13.2970004 L19.4823529,2.72758981 C19.4823529,1.97438668 18.9371938,1.3637949 18.2647059,1.3637949 L9.13235295,1.3637949 C8.796109,1.3637949 8.52352942,1.05849901 8.52352942,0.681897452 C8.52352942,0.305295888 8.796109,6.91805849e-17 9.13235295,0 L18.2647059,0 C19.6096817,1.43019831e-15 20.7,1.22118355 20.7,2.72758981 L20.7,13.2970004 C20.7,14.8034066 19.6096817,16.0245902 18.2647059,16.0245902 L14.2525588,16.0245902 L11.6407059,18.9499302 C11.2985048,19.3336816 10.8342469,19.5495225 10.35,19.55 L10.35,19.55 Z" id="Path" fill="#333333"></path>
                </g>
                <g id="居乐乐-取消" transform="translate(5.175000, 4.025000)">
                    <rect id="Rectangle" fill="#000000" opacity="0" x="0" y="0" width="12.65" height="12.65"></rect>
                    <path d="M10.1929428,9.43525692 L7.08290917,6.32516147 L10.1929309,3.21475506 C10.2943267,3.11337075 10.3500956,2.97857041 10.3499999,2.83517088 C10.3499042,2.69220191 10.294219,2.55799957 10.1932179,2.45728501 C10.0920613,2.35586482 9.95771602,2.30008372 9.81472376,2.3 C9.67112155,2.3 9.53646534,2.35576914 9.43517717,2.45702189 L6.32522725,5.56699774 L3.21475108,2.4570219 C3.11349879,2.35576916 2.97895021,2.30000001 2.83588619,2.30000001 C2.69283415,2.30000001 2.55828556,2.35575719 2.45704523,2.45699798 C2.35582882,2.55793976 2.30009581,2.69220191 2.30000012,2.83517088 C2.29990445,2.97857041 2.35567333,3.11337075 2.45704523,3.21474311 L5.56749747,6.32514951 L2.45703327,9.43526887 C2.35576902,9.53652162 2.30000013,9.67104688 2.30000013,9.81412349 C2.30000013,9.95717618 2.35578099,10.0917373 2.45704524,10.193002 C2.55828558,10.2942548 2.69282219,10.35 2.83587425,10.35 C2.97893826,10.35 3.1134988,10.2942428 3.21473914,10.193002 L6.32517942,7.08294247 L9.43523698,10.193002 C9.53648927,10.2942548 9.67115746,10.35 9.81441283,10.35 C9.95776388,10.3499043 10.0919776,10.2942309 10.1927276,10.1932412 C10.4017861,9.98415779 10.4018459,9.64416097 10.1929428,9.43525692 Z" id="Path" fill="url(#linearGradient-1)" fill-rule="nonzero"></path>
                </g>
            </g>
        </g>
    </g>
</svg>