<?xml version="1.0" encoding="UTF-8"?>
<svg width="26px" height="26px" viewBox="0 0 26 26" version="1.1" xmlns="http://www.w3.org/2000/svg" xmlns:xlink="http://www.w3.org/1999/xlink">
    <!-- Generator: Sketch 54.1 (76490) - https://sketchapp.com -->
    <title>icon/全局/取消/常规复制</title>
    <desc>Created with Sketch.</desc>
    <defs>
        <filter x="-100.0%" y="-100.0%" width="300.0%" height="300.0%" filterUnits="objectBoundingBox" id="filter-1">
            <feOffset dx="0" dy="3" in="SourceAlpha" result="shadowOffsetOuter1"></feOffset>
            <feGaussianBlur stdDeviation="2.5" in="shadowOffsetOuter1" result="shadowBlurOuter1"></feGaussianBlur>
            <feColorMatrix values="0 0 0 0 0   0 0 0 0 0   0 0 0 0 0  0 0 0 0.2 0" type="matrix" in="shadowBlurOuter1" result="shadowMatrixOuter1"></feColorMatrix>
            <feMerge>
                <feMergeNode in="shadowMatrixOuter1"></feMergeNode>
                <feMergeNode in="SourceGraphic"></feMergeNode>
            </feMerge>
        </filter>
        <linearGradient x1="0%" y1="100%" x2="100%" y2="0%" id="linearGradient-2">
            <stop stop-color="#FFFFFF" offset="0%"></stop>
            <stop stop-color="#B9B9B9" offset="100%"></stop>
        </linearGradient>
    </defs>
    <g id="一席移动设计" stroke="none" stroke-width="1" fill="none" fill-rule="evenodd">
        <g id="规范/切图画板" transform="translate(-546.000000, -295.000000)">
            <g id="icon/全局/取消/常规-白色背景" transform="translate(551.000000, 297.000000)">
                <g id="Group" filter="url(#filter-1)">
                    <rect id="Rectangle" fill="#000000" opacity="0" x="0" y="0" width="16" height="16"></rect>
                    <circle id="椭圆形" fill="#FFFFFF" cx="8" cy="7.8" r="7.5"></circle>
                    <circle id="Oval" fill="url(#linearGradient-2)" fill-rule="nonzero" cx="9.5" cy="10.5" r="4.5"></circle>
                    <path d="M5.87118591,10 C5.77681661,10 5.68087449,9.9638251 5.60852469,9.89147531 C5.4638251,9.74677572 5.4638251,9.51085247 5.60852469,9.36615288 L9.86615288,5.10852469 C10.0108525,4.9638251 10.2467757,4.9638251 10.3914753,5.10852469 C10.5361749,5.25322428 10.5361749,5.48914753 10.3914753,5.63384712 L6.13384712,9.89147531 C6.06149733,9.9638251 5.96555521,10 5.87118591,10 Z" id="Path" fill="#333333"></path>
                    <path d="M10.1288141,10 C10.0344448,10 9.93850267,9.96381372 9.86615288,9.89144116 L5.60852469,5.63404657 C5.4638251,5.48930145 5.4638251,5.25330396 5.60852469,5.10855884 C5.75322428,4.96381372 5.98914753,4.96381372 6.13384712,5.10855884 L10.3914753,9.36595343 C10.5361749,9.51069855 10.5361749,9.74669604 10.3914753,9.89144116 C10.3191255,9.96381372 10.2231834,10 10.1288141,10 Z" id="Path" fill="#333333"></path>
                    <path d="M2.22958254,13.359868 C1.95338318,13.0971287 1.33567298,12.3238787 1.20126256,11.947717 C1.11892103,11.7182996 1.06564123,11.4947852 1.20126256,11.3542412 C1.33567298,11.2136973 1.66401003,11.3709152 1.80868291,11.5453977 C2.0525669,11.8395336 2.6032418,12.6091002 2.75097218,12.9129231 C2.85147728,13.1196054 2.72492958,13.3803983 2.66075163,13.3803983 C2.52868876,13.4342836 2.38496573,13.4274401 2.22958254,13.359868 Z" id="Path" fill="#333333" transform="translate(1.953383, 12.358129) rotate(-1.000000) translate(-1.953383, -12.358129) "></path>
                    <path d="M7.99821309,16 C6.33459906,16 4.74067456,15.4943042 3.38798302,14.5383069 C3.19678356,14.4042886 3.15211079,14.1398258 3.2861291,13.9504132 C3.42014742,13.7592138 3.68461023,13.714541 3.87402278,13.8485593 C5.08376145,14.7027027 6.50971633,15.1547912 7.99821309,15.1547912 C11.9437123,15.1547912 15.1547912,11.9437123 15.1547912,7.99821309 C15.1547912,4.05271387 11.9437123,0.841635023 7.99821309,0.841635023 C4.05271387,0.841635023 0.843421934,4.05450078 0.843421934,8 C0.843421934,8.68438687 0.939915122,9.36162609 1.13111459,10.0120616 C1.19723029,10.2354255 1.0685727,10.4695108 0.843421934,10.5356265 C0.618271164,10.6017422 0.384185839,10.4730847 0.319857047,10.2497208 C0.107214653,9.52244807 0,8.76479786 0,8 C0,3.58811704 3.58811704,0 8,0 C12.411883,0 16,3.58811704 16,8 C15.9982131,12.411883 12.410096,16 7.99821309,16 Z" id="Path" fill="#333333"></path>
                </g>
            </g>
        </g>
    </g>
</svg>