<?xml version="1.0" encoding="UTF-8"?>
<svg width="20px" height="20px" viewBox="0 0 20 20" version="1.1" xmlns="http://www.w3.org/2000/svg" xmlns:xlink="http://www.w3.org/1999/xlink">
    <!-- Generator: Sketch 54.1 (76490) - https://sketchapp.com -->
    <title>icon/我的/收藏/高亮</title>
    <desc>Created with Sketch.</desc>
    <defs>
        <linearGradient x1="13.2653061%" y1="100%" x2="86.7346939%" y2="0%" id="linearGradient-1">
            <stop stop-color="#F7F7F7" offset="0%"></stop>
            <stop stop-color="#FA000D" offset="100%"></stop>
        </linearGradient>
    </defs>
    <g id="一席移动设计" stroke="none" stroke-width="1" fill="none" fill-rule="evenodd">
        <g id="规范/切图画板" transform="translate(-266.000000, -349.000000)">
            <g id="icon/我的/收藏/高亮" transform="translate(266.000000, 349.000000)">
                <g id="收藏">
                    <rect id="矩形" fill="#000000" fill-rule="nonzero" opacity="0" x="0" y="0" width="20" height="20"></rect>
                    <path d="M10,16.0324766 C10.4444444,15.8203554 11.4075336,16.219697 11.851978,16.4318182 L14.7408669,17.9166667 L14.851978,17.9166667 C14.9630891,17.9166667 14.9630891,17.8106061 14.9630891,17.7045455 L14.4075336,14.4166667 C14.4075336,14.0984848 14.4075336,13.780303 14.5186447,13.5681818 C14.6297558,13.4621212 14.7408669,13.25 14.851978,13.1439394 C14.6297558,12.5075758 14.5186447,12.0833333 14.5186447,11.7651515 C14.5186447,11.4469697 14.6297558,10.9166667 14.851978,10.280303 L13.7408669,10.1742424 C13.2964225,10.0681818 12.851978,9.75 12.6297558,9.32575757 L11.1853114,6.3560606 C11.1853114,6.3560606 11.1853114,6.25 11.0742002,6.25 C10.9630891,6.25 10.9630891,6.25 10.9630891,6.3560606 L9.51864468,9.32575757 C9.29642247,9.75 8.85197802,10.0681818 8.40753357,10.1742424 L5.07420023,10.7045455 L4.96308913,10.7045455 L4.96308913,11.0227273 L7.29642247,13.3560606 C7.62975581,13.6742424 7.74086692,14.2045455 7.74086692,14.6287879 L7.51864468,15.7954546 L7.35169456,16.7262175 L10,16.0324766 Z" id="Path" fill="url(#linearGradient-1)" fill-rule="nonzero"></path>
                    <path d="M5.28,18.86 C4.94,18.86 4.62,18.76 4.34,18.56 C3.84,18.2 3.6,17.6 3.7,16.98 L4.42,12.78 C4.44,12.64 4.4,12.52 4.3,12.42 L1.26,9.44 C0.82,9 0.66,8.38 0.86,7.78 C1.06,7.2 1.54,6.78 2.16,6.68 L6.38,6.06 C6.52,6.04 6.62,5.96 6.68,5.84 L8.56,2.02 C8.84,1.46 9.38,1.12 10,1.12 C10.62,1.12 11.18,1.46 11.44,2.02 L13.32,5.84 C13.38,5.96 13.5,6.04 13.62,6.06 L17.84,6.68 C18.46,6.76 18.94,7.18 19.14,7.78 C19.34,8.36 19.18,9 18.74,9.44 L15.7,12.42 C15.46,12.66 15.08,12.64 14.86,12.4 C14.64,12.16 14.64,11.78 14.88,11.56 L17.94,8.58 C18.1,8.42 18.06,8.24 18.04,8.16 C18.02,8.08 17.94,7.92 17.7,7.88 L13.48,7.26 C12.96,7.18 12.5,6.86 12.26,6.38 L10.38,2.56 C10.28,2.36 10.08,2.34 10.02,2.34 C9.96,2.34 9.76,2.36 9.66,2.56 L7.78,6.38 C7.54,6.86 7.1,7.18 6.56,7.26 L2.34,7.88 C2.12,7.92 2.04,8.08 2,8.16 C1.96,8.24 1.94,8.42 2.1,8.58 L5.16,11.56 C5.54,11.92 5.72,12.46 5.62,12.98 L4.9,17.18 C4.86,17.4 5,17.54 5.06,17.58 C5.12,17.62 5.28,17.72 5.5,17.62 L9.28,15.64 C9.74,15.4 10.3,15.4 10.78,15.64 L14.56,17.62 C14.76,17.72 14.92,17.64 15,17.58 C15.06,17.54 15.2,17.4 15.16,17.18 L14.6,13.94 C14.54,13.62 14.76,13.3 15.1,13.24 C15.42,13.18 15.74,13.4 15.8,13.72 L16.36,16.96 C16.46,17.56 16.22,18.18 15.72,18.54 C15.22,18.9 14.58,18.94 14.02,18.66 L10.2,16.7 C10.08,16.64 9.94,16.64 9.82,16.7 L6.04,18.68 C5.8,18.8 5.54,18.86 5.28,18.86 Z" id="路径" fill="#000000" fill-rule="nonzero"></path>
                </g>
            </g>
        </g>
    </g>
</svg>