<?xml version="1.0" encoding="UTF-8"?>
<svg width="18px" height="20px" viewBox="0 0 18 20" version="1.1" xmlns="http://www.w3.org/2000/svg" xmlns:xlink="http://www.w3.org/1999/xlink">
    <!-- Generator: Sketch 54.1 (76490) - https://sketchapp.com -->
    <title>icon/我的/删除/常规</title>
    <desc>Created with Sketch.</desc>
    <defs>
        <linearGradient x1="5.94956015%" y1="100%" x2="94.0504398%" y2="0%" id="linearGradient-1">
            <stop stop-color="#FFFFFF" offset="0%"></stop>
            <stop stop-color="#B9B9B9" offset="100%"></stop>
        </linearGradient>
    </defs>
    <g id="一席移动设计" stroke="none" stroke-width="1" fill="none" fill-rule="evenodd">
        <g id="规范/切图画板" transform="translate(-411.000000, -320.000000)">
            <g id="icon/我的/删除/常规" transform="translate(410.000000, 320.000000)">
                <g id="删除">
                    <rect id="Rectangle" fill="#000000" opacity="0" x="0" y="0" width="20" height="20"></rect>
                    <polygon id="Path" fill="url(#linearGradient-1)" fill-rule="nonzero" points="4.78867516 11.6011921 12.1633704 11.6011921 12.1633704 19.4581414 4.78867516 19.4581414"></polygon>
                    <path d="M17.14576,20 L4.68301273,20 C4.38375251,20 4.14115416,19.7574017 4.14115416,19.4581414 L4.14115416,6.18260635 C4.14115416,5.88334612 4.38375251,5.64074777 4.68301273,5.64074777 L17.14576,5.64074777 C17.4450202,5.64074777 17.6876185,5.88334612 17.6876185,6.18260635 L17.6876185,19.4581414 C17.6876185,19.7574017 17.4450202,20 17.14576,20 Z M5.22487131,18.9162829 L16.6039014,18.9162829 L16.6039014,6.72446492 L5.22487131,6.72446492 L5.22487131,18.9162829 Z" id="Shape" fill="#333333" fill-rule="nonzero"></path>
                    <path d="M17.1945272,6.40205906 C17.1471019,6.40199589 17.0998375,6.3965423 17.053644,6.3858033 L5.01625576,3.15903549 C4.72758563,3.08107715 4.55662637,2.78402026 4.63424547,2.49525873 L5.19506908,0.400975352 C5.27302742,0.11230522 5.57008431,-0.058654045 5.85884584,0.0189650586 L17.8962341,3.25115145 C18.1849042,3.32910979 18.3558635,3.62616667 18.2782444,3.9149282 L17.7174208,6.0092116 C17.6807056,6.14850058 17.5900401,6.26743803 17.4654565,6.33974533 C17.3818078,6.38292562 17.2886355,6.40435525 17.1945272,6.40205906 L17.1945272,6.40205906 Z M5.82091574,2.25142238 L16.8125169,5.19642373 L17.0834462,4.15063668 L6.09997291,1.20563533 L5.82091574,2.25142238 Z M4.41208344,17.8325657 L2.24464914,17.8325657 C1.94538891,17.8325657 1.70279057,17.5899674 1.70279057,17.2907071 C1.70279057,16.9914469 1.94538891,16.7488486 2.24464914,16.7488486 L4.41208344,16.7488486 C4.71134366,16.7488486 4.95394201,16.9914469 4.95394201,17.2907071 C4.95394201,17.5899674 4.71134366,17.8325657 4.41208344,17.8325657 Z" id="Shape" fill="#333333" fill-rule="nonzero"></path>
                </g>
            </g>
        </g>
    </g>
</svg>