<?xml version="1.0" encoding="UTF-8"?>
<svg width="12px" height="14px" viewBox="0 0 12 14" version="1.1" xmlns="http://www.w3.org/2000/svg" xmlns:xlink="http://www.w3.org/1999/xlink">
    <!-- Generator: Sketch 54.1 (76490) - https://sketchapp.com -->
    <title>icon/全局/文档/高亮</title>
    <desc>Created with Sketch.</desc>
    <defs>
        <linearGradient x1="0%" y1="84.7222222%" x2="100%" y2="15.2777778%" id="linearGradient-1">
            <stop stop-color="#F7F7F7" offset="0%"></stop>
            <stop stop-color="#FA000D" offset="100%"></stop>
        </linearGradient>
    </defs>
    <g id="一席移动设计" stroke="none" stroke-width="1" fill="none" fill-rule="evenodd">
        <g id="规范/切图画板" transform="translate(-639.000000, -351.000000)">
            <g id="icon/全局/文档/高亮" transform="translate(637.000000, 350.000000)">
                <g id="文档">
                    <rect id="Rectangle" fill="#000000" fill-rule="nonzero" opacity="0" x="0" y="0" width="16" height="16"></rect>
                    <rect id="Rectangle" fill="url(#linearGradient-1)" fill-rule="nonzero" x="3" y="9" width="6" height="5"></rect>
                    <path d="M7.3359375,7.234375 L4.9921875,7.234375 C4.7328125,7.234375 4.5234375,7.025 4.5234375,6.765625 C4.5234375,6.50625 4.7328125,6.296875 4.9921875,6.296875 L7.3359375,6.296875 C7.5953125,6.296875 7.8046875,6.50625 7.8046875,6.765625 C7.8046875,7.025 7.5953125,7.234375 7.3359375,7.234375 Z M10.9375,9.109375 L5,9.109375 C4.740625,9.109375 4.53125,8.9 4.53125,8.640625 C4.53125,8.38125 4.740625,8.171875 5,8.171875 L10.9375,8.171875 C11.196875,8.171875 11.40625,8.38125 11.40625,8.640625 C11.40625,8.9 11.196875,9.109375 10.9375,9.109375 Z M10.9375,10.984375 L5,10.984375 C4.740625,10.984375 4.53125,10.775 4.53125,10.515625 C4.53125,10.25625 4.740625,10.046875 5,10.046875 L10.9375,10.046875 C11.196875,10.046875 11.40625,10.25625 11.40625,10.515625 C11.40625,10.775 11.196875,10.984375 10.9375,10.984375 Z" id="Shape" fill="#333333"></path>
                    <path d="M8.3765625,2.703125 L12.221875,6.5484375 C12.309375,6.6359375 12.359375,6.75625 12.359375,6.8796875 L12.359375,12.859375 C12.359375,13.11875 12.15,13.328125 11.890625,13.328125 L4.078125,13.328125 C3.81875,13.328125 3.609375,13.11875 3.609375,12.859375 L3.609375,3.171875 C3.609375,2.9125 3.81875,2.703125 4.078125,2.703125 L8.3765625,2.703125 L8.3765625,2.703125 Z M8.765625,1.765625 L3.609375,1.765625 C3.0921875,1.765625 2.671875,2.1859375 2.671875,2.703125 L2.671875,13.328125 C2.671875,13.8453125 3.0921875,14.265625 3.609375,14.265625 L12.359375,14.265625 C12.8765625,14.265625 13.296875,13.8453125 13.296875,13.328125 L13.296875,6.296875 L8.765625,1.765625 Z" id="Shape" fill="#333333"></path>
                    <path d="M9.703125,4.0296875 L11.0328125,5.359375 L9.703125,5.359375 L9.703125,4.0296875 L9.703125,4.0296875 Z M8.765625,1.765625 L8.765625,5.828125 C8.765625,6.0875 8.975,6.296875 9.234375,6.296875 L13.296875,6.296875 L8.765625,1.765625 Z" id="Shape" fill="#333333"></path>
                </g>
            </g>
        </g>
    </g>
</svg>