<?xml version="1.0" encoding="UTF-8"?>
<svg width="12px" height="12px" viewBox="0 0 12 12" version="1.1" xmlns="http://www.w3.org/2000/svg" xmlns:xlink="http://www.w3.org/1999/xlink">
    <!-- Generator: Sketch 54.1 (76490) - https://sketchapp.com -->
    <title>icon/video/评论/编辑/常规</title>
    <desc>Created with Sketch.</desc>
    <g id="一席移动设计" stroke="none" stroke-width="1" fill="none" fill-rule="evenodd">
        <g id="规范/切图画板" transform="translate(-213.000000, -323.000000)">
            <g id="icon/video/评论/编辑/常规" transform="translate(212.000000, 320.000000)">
                <g id="输入2">
                    <rect id="Rectangle" fill="#000000" opacity="0" x="0" y="0" width="16" height="16"></rect>
                    <path d="M11.1802569,14.6363279 C11.1802569,14.8368958 11.0170426,14.99975 10.8160313,14.99975 L1.96036659,14.99975 C1.75935528,14.99975 1.597,14.8377529 1.597,14.6363279 L1.597,14.4349029 C1.597,14.2351922 1.75935528,14.0714809 1.96036659,14.0714809 L10.8160313,14.0714809 C11.0161835,14.0714809 11.1802569,14.2343351 11.1802569,14.4349029 L11.1802569,14.6363279 Z M10.541144,3.21253191 L9.55412696,4.19651434 L11.3975896,6.0367672 L12.3837476,5.05278477 C12.6680841,4.76907555 12.6680841,4.30965518 12.3837476,4.02594596 L11.5693941,3.21253191 C11.2859167,2.9288227 10.8246215,2.9288227 10.541144,3.21253191 Z M10.980632,6.45502847 L5.8332775,11.5895748 L3.98942658,9.74927119 L9.13678111,4.61472488 L10.980632,6.45502847 Z M5.42652305,11.9920894 L3.58391943,10.154408 L2.46976703,13.1037839 L5.42652305,11.9920894 Z" id="Shape" fill="#9B9B9B" fill-rule="nonzero"></path>
                </g>
            </g>
        </g>
    </g>
</svg>