<?xml version="1.0" encoding="UTF-8"?>
<svg width="13px" height="13px" viewBox="0 0 13 13" version="1.1" xmlns="http://www.w3.org/2000/svg" xmlns:xlink="http://www.w3.org/1999/xlink">
    <!-- Generator: Sketch 54.1 (76490) - https://sketchapp.com -->
    <title>icon/我的/退出登录/常规 copy</title>
    <desc>Created with Sketch.</desc>
    <defs>
        <linearGradient x1="0%" y1="68%" x2="100%" y2="32%" id="linearGradient-1">
            <stop stop-color="#F7F7F7" offset="0%"></stop>
            <stop stop-color="#FA000D" offset="100%"></stop>
        </linearGradient>
    </defs>
    <g id="一席移动设计" stroke="none" stroke-width="1" fill="none" fill-rule="evenodd">
        <g id="规范/切图画板" transform="translate(-441.000000, -352.000000)">
            <g id="icon/我的/退出登录/高亮" transform="translate(440.000000, 351.000000)">
                <g id="退出">
                    <rect id="Rectangle" fill="#000000" opacity="0" x="0" y="0" width="15" height="15"></rect>
                    <path d="M3,11.4084912 C4.06099792,12.3929123 5.51490718,13 7.11876023,13 C9.36012482,13 11.3086519,11.8143684 12.3012085,10.0701754 C12.7470325,9.28673684 13,8.39059649 13,7.43859649 C13,7.29098246 12.9939147,7.1447193 12.9819667,7 L3,11.4084912 Z" id="Path" fill="url(#linearGradient-1)" fill-rule="nonzero"></path>
                    <path d="M7.5,14 C6.62274352,14 5.77144957,13.8247071 4.96973919,13.47901 C4.1956585,13.1452106 3.50057061,12.6674948 2.90380692,12.059078 C2.30704323,11.4506803 1.8384438,10.7420415 1.51102738,9.95286993 C1.17194092,9.13553005 1,8.26762085 1,7.37328117 C1,6.60286304 1.12874496,5.84772265 1.38267579,5.12882869 C1.62797118,4.43437911 1.98401009,3.78979225 2.44088329,3.21300035 C2.63588329,2.9668187 2.98967435,2.92841429 3.23114841,3.12721586 C3.47262248,3.32599832 3.51029251,3.68670572 3.31529251,3.93288737 C2.53589193,4.91685008 2.12391931,6.10650843 2.12391931,7.37328117 C2.12391931,10.3954469 4.53562536,12.8541697 7.5,12.8541697 C10.4643746,12.8541697 12.8760807,10.3954469 12.8760807,7.37328117 C12.8760807,6.10652753 12.4641268,4.91685008 11.6847262,3.93288737 C11.489745,3.68672481 11.527415,3.32601742 11.7688703,3.12721586 C12.0103444,2.92841429 12.3641542,2.9668569 12.5591354,3.21301945 C13.0160274,3.78981135 13.3720288,4.43439821 13.6173242,5.12884779 C13.871255,5.84772265 14,6.60286304 14,7.37328117 C14,8.26762085 13.8280591,9.13553005 13.4889726,9.95286993 C13.1615562,10.7420415 12.6929755,11.4506803 12.0961931,12.059078 C11.4994107,12.6674757 10.8043415,13.1452106 10.0302608,13.47901 C9.22855043,13.8247071 8.37723775,14 7.5,14 Z" id="Path" fill="#333333"></path>
                    <path d="M7.5,8 C7.225,8 7,7.74320652 7,7.42934783 L7,1.57065217 C7,1.25679348 7.225,1 7.5,1 C7.775,1 8,1.25679348 8,1.57065217 L8,7.42934783 C8,7.74320652 7.775,8 7.5,8 Z" id="Path" fill="#333333"></path>
                </g>
            </g>
        </g>
    </g>
</svg>