<?xml version="1.0" encoding="UTF-8"?>
<svg width="43px" height="44px" viewBox="0 0 43 44" version="1.1" xmlns="http://www.w3.org/2000/svg" xmlns:xlink="http://www.w3.org/1999/xlink">
    <!-- Generator: Sketch 52.5 (67469) - http://www.bohemiancoding.com/sketch -->
    <title>icon/第三方/微博</title>
    <desc>Created with Sketch.</desc>
    <defs>
        <rect id="path-1" x="0" y="0" width="40" height="40" rx="3"></rect>
        <filter x="-4.5%" y="-4.5%" width="109.0%" height="109.0%" filterUnits="objectBoundingBox" id="filter-2">
            <feMorphology radius="0.3" operator="dilate" in="SourceAlpha" result="shadowSpreadOuter1"></feMorphology>
            <feOffset dx="0" dy="0" in="shadowSpreadOuter1" result="shadowOffsetOuter1"></feOffset>
            <feGaussianBlur stdDeviation="0.5" in="shadowOffsetOuter1" result="shadowBlurOuter1"></feGaussianBlur>
            <feComposite in="shadowBlurOuter1" in2="SourceAlpha" operator="out" result="shadowBlurOuter1"></feComposite>
            <feColorMatrix values="0 0 0 0 0.759589101   0 0 0 0 0.787563015   0 0 0 0 0.843510842  0 0 0 0.397248641 0" type="matrix" in="shadowBlurOuter1"></feColorMatrix>
        </filter>
    </defs>
    <g id="一席H5" stroke="none" stroke-width="1" fill="none" fill-rule="evenodd">
        <g id="规范/切图画板" transform="translate(-127.000000, -465.000000)">
            <g id="icon/第三方/微博" transform="translate(129.000000, 467.000000)">
                <g id="Group-5-Copy">
                    <g id="Rectangle-Copy-2" opacity="0.900000036">
                        <use fill="black" fill-opacity="1" filter="url(#filter-2)" xlink:href="#path-1"></use>
                        <rect stroke-opacity="0.397248641" stroke="#C2C9D7" stroke-width="0.3" fill="#F5A623" fill-rule="evenodd" x="-0.15" y="-0.15" width="40.3" height="40.3" rx="3"></rect>
                    </g>
                    <g id="icon/第三方/微博/原始" transform="translate(8.000000, 9.000000)">
                        <g id="微博发送模板">
                            <rect id="Rectangle" fill="#000000" opacity="0" x="0" y="1.375" width="25" height="20.625"></rect>
                            <path d="M20.7160958,7.69102581 C20.7160958,7.69102581 19.4874607,7.96569201 20.0750688,7.03182691 C20.9831904,5.27396319 19.4874607,2.36250141 15.6947174,4.28516485 C14.4126633,4.99929699 14.4126633,4.50489782 14.4126633,3.62596596 C14.5195011,-1.15322603 5.70537936,2.25263493 3.19469013,8.46009119 C1.80579821,12.2504848 4.04939285,15.4915461 7.52162264,16.9198103 C16.0152309,19.9960718 22.2652445,14.9422137 23.280204,11.6462192 C24.7759337,6.75716071 20.7160958,7.69102581 20.7160958,7.69102581 Z" id="Path" fill="#FFFFFF"></path>
                            <path d="M12.7212644,19.25 C10.851965,19.25 8.9276862,18.9100153 7.00340741,18.230046 C2.44011771,16.3601304 0.350900736,12.1669862 1.89032377,8.03050609 C3.97954074,2.87407202 9.8073565,-0.639102845 13.1061201,0.0975305935 C14.5355844,0.437515258 15.4152547,1.45746925 15.5252135,2.98740024 C18.4941008,1.57079747 20.0885032,2.81740791 20.6932765,3.38404901 C21.462988,4.17734656 21.737885,5.31062878 21.5729468,6.38724688 C22.3426583,6.38724688 23.4422462,6.55723921 24.2119577,7.40720087 C25.091628,8.42715486 25.2565662,9.95708585 24.5968135,11.9969938 C23.9370608,14.0935659 21.9028232,16.3034662 19.2088329,17.6634049 C17.2295747,18.740023 14.9754195,19.25 12.7212644,19.25 Z M12.1164911,2.2507668 C9.8073565,2.2507668 5.51896377,4.97064411 3.92456135,8.88046775 C2.60505589,12.5069708 5.18908741,15.0568558 7.77311893,16.1334739 C12.4463674,17.8333972 16.0750074,16.8701074 18.2741832,15.7368251 C20.6932765,14.4902147 22.1777202,12.6769632 22.5625759,11.4303527 C22.8924523,10.2970705 22.9474317,9.39044474 22.6725347,9.05046008 C22.3426583,8.71047542 21.5729468,8.76713953 21.2430705,8.82380364 C20.8582147,8.93713186 19.8685856,9.05046008 19.3187917,8.25716253 C19.0988741,7.97384198 18.8789565,7.35053676 19.3737711,6.5005751 C19.5936886,6.04726221 19.4837298,5.423957 19.1538535,5.08397233 C18.6590389,4.51733123 17.5594511,4.57399534 16.294925,5.25396466 C15.8550898,5.48062111 14.9204401,5.9905981 14.1507286,5.53728522 C13.4359965,5.08397233 13.4359965,4.23401067 13.4359965,3.55404134 C13.4359965,2.64741557 13.1061201,2.47742324 12.7212644,2.42075913 C12.4463674,2.2507668 12.2814292,2.2507668 12.1164911,2.2507668 Z" id="Shape" fill="#FFFFFF" fill-rule="nonzero"></path>
                            <path d="M20.7160958,7.69102581 C20.7160958,7.69102581 19.4874607,7.96569201 20.0750688,7.03182691 C20.9831904,5.27396319 19.4874607,2.36250141 15.6947174,4.28516485 C14.4126633,4.99929699 14.4126633,4.50489782 14.4126633,3.62596596 C14.5195011,-1.15322603 5.70537936,2.25263493 3.19469013,8.46009119 C1.80579821,12.2504848 4.04939285,15.4915461 7.52162264,16.9198103 C16.0152309,19.9960718 22.2652445,14.9422137 23.280204,11.6462192 C24.7759337,6.75716071 20.7160958,7.69102581 20.7160958,7.69102581 Z M12.9169335,16.0958117 C8.85709563,16.6451441 5.278028,14.8323472 4.90409556,12.0856851 C4.53016312,9.33902304 7.52162264,6.59236098 11.5280416,6.04302857 C15.5344606,5.49369616 19.1669472,7.30649312 19.5408796,10.0531552 C19.914812,12.7998172 16.9233525,15.5464793 12.9169335,16.0958117 Z" id="Shape" fill="#FFFFFF" fill-rule="nonzero"></path>
                            <path d="M15.2249938,10.8915615 C14.8604726,9.03118732 12.777494,7.9149628 10.4862175,8.34019119 C8.19494108,8.76541958 6.63270713,10.6789473 6.99722839,12.486168 C7.36174964,14.2933887 9.44472824,15.4627667 11.7360047,15.0375383 C14.0272811,14.61231 15.5895151,12.7519357 15.2249938,10.8915615 Z" id="Path" stroke="#F5A623" fill="#F5A623"></path>
                            <path d="M9.72222222,13.75 C8.94444444,13.75 8.33333333,13.145 8.33333333,12.375 C8.33333333,11.605 8.94444444,11 9.72222222,11 C10.5,11 11.1111111,11.605 11.1111111,12.375 C11.1111111,13.145 10.5,13.75 9.72222222,13.75 Z" id="Path" fill="#FFFFFF"></path>
                            <path d="M12.5,12.375 C11.8518519,12.375 11.1111111,11.7333333 11.1111111,11 C11.1111111,10.2666667 11.8518519,9.625 12.5,9.625 C13.1481481,9.625 13.8888889,10.2666667 13.8888889,11 C13.8888889,11.7333333 13.1481481,12.375 12.5,12.375 Z" id="Path" fill="#FFFFFF"></path>
                        </g>
                    </g>
                </g>
            </g>
        </g>
    </g>
</svg>