<?xml version="1.0" encoding="UTF-8"?>
<svg width="20px" height="20px" viewBox="0 0 20 20" version="1.1" xmlns="http://www.w3.org/2000/svg" xmlns:xlink="http://www.w3.org/1999/xlink">
    <!-- Generator: Sketch 54.1 (76490) - https://sketchapp.com -->
    <title>icon/我的/退出登录/常规复制 2</title>
    <desc>Created with Sketch.</desc>
    <defs>
        <linearGradient x1="0%" y1="68%" x2="100%" y2="32%" id="linearGradient-1">
            <stop stop-color="#FFFFFF" offset="0%"></stop>
            <stop stop-color="#B9B9B9" offset="100%"></stop>
        </linearGradient>
    </defs>
    <g id="一席移动设计" stroke="none" stroke-width="1" fill="none" fill-rule="evenodd">
        <g id="规范/切图画板" transform="translate(-434.000000, -446.000000)">
            <g id="icon/我的/退出登录/常规" transform="translate(434.000000, 446.000000)">
                <rect id="矩形" fill="#FFFFFF" x="0" y="0" width="20" height="20"></rect>
                <g id="退出" stroke-width="1">
                    <rect id="Rectangle" fill="#000000" opacity="0" x="0" y="0" width="20" height="20"></rect>
                    <path d="M4,16.6127368 C5.59149688,18.0893684 7.77236077,19 10.1781403,19 C13.5401872,19 16.4629779,17.2215526 17.9518128,14.6052632 C18.6205487,13.4301053 19,12.0858947 19,10.6578947 C19,10.4364737 18.990872,10.2170789 18.97295,10 L4,16.6127368 Z" id="Path" fill="url(#linearGradient-1)" fill-rule="nonzero"></path>
                    <path d="M10.1682165,19.9983717 C8.81878714,20.0219254 7.50484446,19.7898545 6.26284733,19.3086348 C5.06365325,18.8439757 3.98231552,18.1678991 3.04890592,17.2991048 C2.1154968,16.4303382 1.37669016,15.4123506 0.85301223,14.273454 C0.310667947,13.0939056 0.0241495634,11.8363269 0.00144630529,10.535694 C-0.0181111425,9.41527942 0.16075964,8.31362648 0.533116244,7.26132536 C0.892810008,6.24480542 1.42411946,5.29782715 2.11225707,4.44673536 C2.40596405,4.08347922 2.94920403,4.01812886 3.32569531,4.3007614 C3.70218611,4.58336616 3.76928832,5.10692938 3.47558133,5.47018552 C2.30165606,6.92208306 1.69814414,8.66325738 1.7303018,10.5055175 C1.80702098,14.9006353 5.57921501,18.4115887 10.139129,18.3319973 C14.699043,18.2524059 18.3464052,14.6119473 18.269686,10.2168294 C18.2375289,8.37459709 17.5736452,6.65551685 16.3497631,5.24547204 C16.0435865,4.8927144 16.0923753,4.36712835 16.4587444,4.07152949 C16.8251423,3.77593014 17.3703619,3.82233745 17.6765385,4.17509509 C18.3939892,5.00165292 18.9579673,5.9295134 19.352919,6.93286132 C19.7617741,7.97149893 19.9789841,9.06623844 19.9985415,10.186653 C20.0212448,11.4872859 19.778791,12.7540977 19.2779439,13.9518545 C18.794333,15.1083329 18.0915335,16.1514832 17.1889845,17.0522956 C16.2864355,17.953108 15.2293812,18.6665371 14.0471345,19.1727633 C12.8226887,19.6970338 11.517617,19.9748184 10.1682165,19.9983717 Z M10.0285962,10.9997745 C9.47859236,10.9997745 9.02858918,10.5962502 9.02858918,10.1030538 L9.02858918,0.89672075 C9.02858918,0.403524338 9.47859236,0 10.0285892,0 C10.5786001,0 11.0286033,0.403524338 11.0286033,0.89672075 L11.0286033,10.1030538 C11.0286033,10.5962502 10.5786001,10.9997745 10.0285962,10.9997745 Z" id="形状结合" fill="#333333"></path>
                </g>
            </g>
        </g>
    </g>
</svg>