<?xml version="1.0" encoding="UTF-8"?>
<svg width="20px" height="16px" viewBox="0 0 20 16" version="1.1" xmlns="http://www.w3.org/2000/svg" xmlns:xlink="http://www.w3.org/1999/xlink">
    <!-- Generator: Sketch 55 (78076) - https://sketchapp.com -->
    <title>icon/导航/主导航/会员/常规</title>
    <desc>Created with Sketch.</desc>
    <g id="一席移动设计" stroke="none" stroke-width="1" fill="none" fill-rule="evenodd">
        <g id="规范/切图画板" transform="translate(-80.000000, -323.000000)">
            <g id="icon/导航/主导航/会员/常规" transform="translate(80.000000, 321.000000)">
                <g id="会员">
                    <rect id="矩形" fill="#000000" fill-rule="nonzero" opacity="0" x="0" y="0" width="20" height="20"></rect>
                    <path d="M12.9740161,2.5 L7.02598394,2.5 C6.34742579,2.5 5.69667521,2.77594302 5.21687149,3.26714866 L1.11925304,7.4617245 C0.738026766,7.85199439 0.738026766,8.48469875 1.11925304,8.87498914 L9.08542608,17.0298271 C9.33799105,17.2883597 9.66899552,17.4176157 10,17.4176157 C10.3310045,17.4176157 10.6620295,17.2883597 10.9145739,17.0298271 L18.880747,8.87498914 C19.2619732,8.48471926 19.2619732,7.85201489 18.880747,7.4617245 L14.783149,3.26714866 C14.3033248,2.77596352 13.6525537,2.5 12.9740161,2.5 Z" id="路径" stroke="#333333" fill="#FFFFFF" fill-rule="nonzero"></path>
                    <path d="M9.05369354,6.66666667 C8.83780959,6.66666667 8.63075053,6.75915995 8.47806637,6.92376835 L7.17430437,8.32973247 C7.05300966,8.46052117 7.05300966,8.67259228 7.17430437,8.80336659 L9.70901624,11.5366892 C9.78552884,11.6198018 9.89044633,11.6666667 10,11.6666667 C10.1095537,11.6666667 10.2144712,11.6198018 10.2909838,11.5366892 L12.8256956,8.80336659 C12.9469903,8.67257789 12.9469903,8.46050678 12.8256956,8.32973247 L11.5219336,6.92376835 C11.3692495,6.75915995 11.1621768,6.66666667 10.9462929,6.66666667 L9.05369354,6.66666667 Z" id="路径" fill="#333333"></path>
                </g>
            </g>
        </g>
    </g>
</svg>