<?xml version="1.0" encoding="UTF-8"?>
<svg width="47px" height="46px" viewBox="0 0 47 46" version="1.1" xmlns="http://www.w3.org/2000/svg" xmlns:xlink="http://www.w3.org/1999/xlink">
    <!-- Generator: Sketch 54.1 (76490) - https://sketchapp.com -->
    <title>icon/全局/更多</title>
    <desc>Created with Sketch.</desc>
    <defs>
        <linearGradient x1="0%" y1="100%" x2="100%" y2="0%" id="linearGradient-1">
            <stop stop-color="#F7F7F7" offset="0%"></stop>
            <stop stop-color="#FA000D" offset="100%"></stop>
        </linearGradient>
    </defs>
    <g id="一席移动设计" stroke="none" stroke-width="1" fill="none" fill-rule="evenodd">
        <g id="规范/切图画板" transform="translate(-257.000000, -483.000000)">
            <g id="icon/全局/更多" transform="translate(257.000000, 483.000000)">
                <g id="more-o">
                    <rect id="Rectangle" fill="#000000" opacity="0" x="0" y="0" width="46" height="46"></rect>
                    <circle id="Oval" fill="url(#linearGradient-1)" fill-rule="nonzero" cx="29" cy="31" r="13"></circle>
                    <path d="M23,43.125 C34.1147306,43.125 43.125,34.1147306 43.125,23 C43.125,11.8852694 34.1147306,2.875 23,2.875 C11.8852694,2.875 2.875,11.8852694 2.875,23 C2.875,34.1147306 11.8852694,43.125 23,43.125 Z M23,46 C10.2974508,46 1.55561363e-15,35.7025492 0,23 C-1.55561363e-15,10.2974508 10.2974508,2.33342044e-15 23,0 C35.7025492,7.77806814e-16 46,10.2974508 46,23 C46,35.7025492 35.7025492,46 23,46 Z M14.375,25.875 C15.9628187,25.875 17.25,24.5878187 17.25,23 C17.25,21.4121813 15.9628187,20.125 14.375,20.125 C12.7871813,20.125 11.5,21.4121813 11.5,23 C11.5,24.5878187 12.7871813,25.875 14.375,25.875 Z M23,25.875 C24.5878187,25.875 25.875,24.5878187 25.875,23 C25.875,21.4121813 24.5878187,20.125 23,20.125 C21.4121813,20.125 20.125,21.4121813 20.125,23 C20.125,24.5878187 21.4121813,25.875 23,25.875 Z M31.625,25.875 C33.2128187,25.875 34.5,24.5878187 34.5,23 C34.5,21.4121813 33.2128187,20.125 31.625,20.125 C30.0371813,20.125 28.75,21.4121813 28.75,23 C28.75,24.5878187 30.0371813,25.875 31.625,25.875 Z" id="Shape" fill="#333333"></path>
                </g>
            </g>
        </g>
    </g>
</svg>