<?xml version="1.0" encoding="UTF-8"?>
<svg width="22px" height="22px" viewBox="0 0 22 22" version="1.1" xmlns="http://www.w3.org/2000/svg" xmlns:xlink="http://www.w3.org/1999/xlink">
    <!-- Generator: Sketch 55 (78076) - https://sketchapp.com -->
    <title>icon/导航/主导航/我的/常规</title>
    <desc>Created with Sketch.</desc>
    <g id="一席移动设计" stroke="none" stroke-width="1" fill="none" fill-rule="evenodd">
        <g id="规范/切图画板" transform="translate(-113.000000, -320.000000)">
            <g id="icon/导航/主导航/我的/常规" transform="translate(114.000000, 321.000000)">
                <g id="我的">
                    <rect id="Rectangle" fill="#000000" opacity="0" x="0" y="0" width="20" height="20"></rect>
                    <path d="M1.66666667,10 C1.66666667,14.6023729 5.39762708,18.3333333 10,18.3333333 C14.6023729,18.3333333 18.3333333,14.6023729 18.3333333,10 C18.3333333,5.39762708 14.6023729,1.66666667 10,1.66666667 C5.39762708,1.66666667 1.66666667,5.39762708 1.66666667,10 Z" id="Path" stroke="#333333" fill="#FFFFFF"></path>
                    <path d="M8.54066667,7.21333333 C8.54066667,8.01930088 9.19403246,8.67266667 10,8.67266667 C10.8059675,8.67266667 11.4593333,8.01930088 11.4593333,7.21333333 C11.4593333,6.40736579 10.8059675,5.754 10,5.754 C9.19403246,5.754 8.54066667,6.40736579 8.54066667,7.21333333 Z" id="Path" fill="#333333"></path>
                    <path d="M13.0891667,12.8361667 C13.0891667,15.0361667 11.7068333,13.8188333 10,13.8188333 C8.29316667,13.8188333 6.91083333,15.038 6.91083333,12.8361667 C6.91083333,10.6343333 8.295,8.84866667 10,8.84866667 C11.705,8.84866667 13.0891667,10.6343333 13.0891667,12.8361667 Z" id="Path" fill="#333333"></path>
                </g>
            </g>
        </g>
    </g>
</svg>