<?xml version="1.0" encoding="UTF-8"?>
<svg width="18px" height="20px" viewBox="0 0 18 20" version="1.1" xmlns="http://www.w3.org/2000/svg" xmlns:xlink="http://www.w3.org/1999/xlink">
    <!-- Generator: Sketch 54.1 (76490) - https://sketchapp.com -->
    <title>icon/导航/主导航/现场/常规</title>
    <desc>Created with Sketch.</desc>
    <defs>
        <linearGradient x1="0%" y1="65.4320988%" x2="100%" y2="34.5679012%" id="linearGradient-1">
            <stop stop-color="#FFFFFF" offset="0%"></stop>
            <stop stop-color="#B9B9B9" offset="100%"></stop>
        </linearGradient>
    </defs>
    <g id="一席移动设计" stroke="none" stroke-width="1" fill="none" fill-rule="evenodd">
        <g id="规范/切图画板" transform="translate(-214.000000, -383.000000)">
            <g id="icon/导航/主导航/现场/常规" transform="translate(212.000000, 382.000000)">
                <g id="门票" transform="translate(0.916667, 0.916667)">
                    <rect id="Rectangle-path" fill="#000000" fill-rule="nonzero" opacity="0" x="0" y="0" width="20.1666667" height="20.1666667"></rect>
                    <path d="M7.38381624,7.40126514 C7.41030469,7.00693197 7.57701449,6.63881152 7.86001742,6.35580859 C8.16976481,6.0460612 8.58044401,5.87547168 9.01641032,5.87547168 C9.17376546,5.87547168 9.32749691,5.89802132 9.47413851,5.9411512 L10.7121237,5.0764069 C10.6546188,5.09752763 10.5900813,5.08328078 10.5468122,5.0399139 L10.1155921,4.60869385 C10.0753893,4.5689727 10.0595415,4.51076108 10.0740608,4.45614215 C10.0885801,4.40152322 10.1312419,4.35886515 10.1858621,4.34435069 C10.2404823,4.32983624 10.2986926,4.34568917 10.3384102,4.38589551 L10.7696302,4.81711556 C10.8279442,4.87542952 10.8308786,4.96807015 10.7786304,5.02994873 L12.4705822,3.84811117 L10.6582015,2.03573047 L9.323243,3.37070866 L9.58172689,3.62919255 C9.62678889,3.67425223 9.6402695,3.74202021 9.61588244,3.80089491 C9.59149537,3.85976961 9.53404352,3.89815597 9.47031787,3.89815365 C9.42852067,3.89821164 9.38842478,3.88160483 9.35890885,3.85201058 L9.10042497,3.59352669 L3.1078724,9.58607926 C3.21636112,9.78158008 3.30767698,9.98612813 3.38079199,10.1974207 L7.38381624,7.40126514 L7.38381624,7.40126514 Z M3.56264648,10.9746252 C3.67397673,11.8466366 3.48834098,12.7467513 3.00910693,13.5157236 L3.09948275,13.6060994 C3.64244661,12.8481951 3.81597054,11.8781273 3.56264648,10.9746252 L3.56264648,10.9746252 Z M11.4605158,5.51455924 L11.6698434,5.81420361 C11.6937728,5.84846179 11.703112,5.89082314 11.6958065,5.93196758 C11.688501,5.97311202 11.6651491,6.00966879 11.6308887,6.03359489 C11.6044972,6.05210023 11.5730412,6.06201706 11.5408083,6.06199365 C11.489286,6.06207227 11.4409897,6.03691995 11.4115171,5.99465983 L11.2021895,5.69499577 L4.25455615,10.5479938 C4.71191016,11.8775955 4.41067057,13.3556507 3.4705376,14.3999059 L6.08060449,18.1365096 L17.1695534,10.3907568 L13.0082681,4.43343685 L11.4605158,5.51455924 Z M12.0632116,6.65255794 C12.1344842,6.6027124 12.2327573,6.6201416 12.2826029,6.691493 L12.6318368,7.19144515 C12.6557651,7.22570021 12.6651038,7.26805848 12.6577982,7.30919971 C12.6504926,7.35034093 12.6271411,7.38689427 12.592882,7.41081673 C12.5664905,7.42932208 12.5350345,7.4392389 12.5028016,7.43921549 C12.4512793,7.43929412 12.402983,7.4141418 12.3735104,7.37188167 L12.0242765,6.87192952 C12.0003463,6.83767687 11.9910043,6.79532026 11.9983062,6.75417922 C12.0056081,6.71303819 12.0289556,6.67648344 12.0632116,6.65255794 L12.0632116,6.65255794 Z M8.82494515,9.24257633 C8.90311068,8.8175599 9.14217627,8.44658382 9.49812581,8.19796663 C9.77527962,8.00437451 10.099443,7.90204443 10.4355213,7.90204443 C10.9632814,7.90204443 11.4575026,8.15846045 11.7575409,8.58796712 C12.0049173,8.94208512 12.097873,9.37216292 12.019353,9.79899121 C11.9411481,10.2240076 11.7020628,10.594964 11.3460936,10.8436009 C11.0689792,11.0371733 10.7448354,11.1395034 10.4087178,11.1395034 C9.88093799,11.1395034 9.38673649,10.8830677 9.08675732,10.453561 C8.83942025,10.0994824 8.74644482,9.66940462 8.82494515,9.24257633 L8.82494515,9.24257633 Z M5.58285807,14.6917318 C5.51687008,14.7379938 5.43822637,14.7627917 5.35763737,14.7627484 C5.23330908,14.7627484 5.11098958,14.7040405 5.03437988,14.5943843 C4.90981527,14.4160353 4.95339811,14.1705101 5.13172738,14.0459061 L8.39362663,11.7674272 C8.57199528,11.6428429 8.81752051,11.6864455 8.94208512,11.864755 C9.06664974,12.043104 9.02306689,12.2886292 8.84473763,12.4132332 L5.58285807,14.6917318 Z M14.8108805,10.5861608 C14.8451387,10.5622315 14.8875001,10.5528922 14.9286445,10.5601977 C14.9697889,10.5675033 15.0063457,10.5908551 15.0302718,10.6251156 L15.3795254,11.1250677 C15.4290492,11.1964006 15.4115163,11.2943564 15.3403245,11.3440826 C15.2691326,11.3938089 15.1711274,11.3765545 15.1211991,11.3055042 L14.7719455,10.8055521 C14.7480142,10.7712963 14.7386717,10.7289366 14.7459735,10.6877924 C14.7532754,10.6466481 14.7766232,10.6100899 14.8108805,10.5861608 L14.8108805,10.5861608 Z M13.9016081,9.28438672 C13.9358663,9.26045738 13.9782276,9.2511181 14.019372,9.25842364 C14.0605165,9.26572918 14.0970732,9.28908103 14.1209993,9.32334147 L14.4702135,9.82329362 C14.5200452,9.89462847 14.5026133,9.99285329 14.4312785,10.0426849 C14.3599436,10.0925165 14.2617188,10.0750847 14.2118872,10.0037498 L13.862673,9.50379769 C13.8387355,9.46954047 13.8293894,9.42717617 13.8366914,9.38602713 C13.8439934,9.3448781 13.8673452,9.30831611 13.9016081,9.28438672 L13.9016081,9.28438672 Z M13.4634951,11.7180938 L6.76601514,16.3964059 C6.7000214,16.442654 6.62138013,16.4674443 6.54079443,16.4674028 C6.41646615,16.4674028 6.29414665,16.408695 6.21753695,16.2990387 C6.09297233,16.1206898 6.13655518,15.8751646 6.31488444,15.7505605 L13.0123644,11.0722484 C13.1906937,10.9477035 13.4362386,10.9912863 13.5608426,11.1695959 C13.6854072,11.3479645 13.6418047,11.5935094 13.4634951,11.7180938 L13.4634951,11.7180938 Z M13.1919147,7.99326709 L13.5411486,8.49321924 C13.5650779,8.52747742 13.5744172,8.56983877 13.5671117,8.61098321 C13.5598061,8.65212765 13.5364543,8.68868441 13.5021938,8.71261051 C13.4758023,8.73111586 13.4443463,8.74103268 13.4121134,8.74100928 C13.3605912,8.7410879 13.3122949,8.71593558 13.2828223,8.67367546 L12.9335884,8.17372331 C12.909659,8.13946513 12.9003198,8.09710378 12.9076253,8.05595934 C12.9149308,8.0148149 12.9382827,7.97825813 12.9725431,7.95433203 C13.0438158,7.90448649 13.1420692,7.92191569 13.1919147,7.99326709 L13.1919147,7.99326709 Z" id="Shape" fill="#FAFAFA" fill-rule="nonzero"></path>
                    <polygon id="Rectangle" fill="url(#linearGradient-1)" fill-rule="nonzero" transform="translate(9.112407, 12.531716) rotate(-34.000000) translate(-9.112407, -12.531716) " points="4.98740651 10.2400489 13.2374065 10.2400489 13.2374065 14.8233822 4.98740651 14.8233822"></polygon>
                    <path d="M10.4087178,11.1395034 C10.7448158,11.1395034 11.0689595,11.0371733 11.3460936,10.8436009 C11.7020431,10.5949837 11.9411481,10.2240076 12.019353,9.79899121 C12.097873,9.37216292 12.0049173,8.94208512 11.7575409,8.58796712 C11.4575026,8.15846045 10.9632814,7.90204443 10.4355213,7.90204443 C10.099443,7.90204443 9.77527962,8.00437451 9.49812581,8.19796663 C9.14219596,8.44658382 8.90313037,8.8175599 8.82494515,9.24257633 C8.74644482,9.66940462 8.83942025,10.0994824 9.08675732,10.453561 C9.38675618,10.8830677 9.88095768,11.1395034 10.4087178,11.1395034 L10.4087178,11.1395034 Z" id="Path" fill="#333333" fill-rule="nonzero"></path>
                    <path d="M10.4087178,10.351743 C10.5826553,10.351743 10.7508027,10.2985101 10.8949826,10.1977949 C11.0799684,10.0685825 11.2040998,9.87634928 11.244571,9.65646566 C11.2846877,9.43843327 11.2375205,9.21916016 11.1117152,9.03909782 C10.958929,8.82039583 10.7061367,8.68982454 10.4355016,8.68982454 C10.2615641,8.68982454 10.0934167,8.74307715 9.94919743,8.84379232 C9.76425098,8.97298503 9.64013932,9.16521826 9.59968783,9.38510189 C9.55959082,9.60315397 9.60677767,9.82242708 9.73256331,10.0024894 C9.88532975,10.2211717 10.1381024,10.351743 10.4087178,10.351743 L10.4087178,10.351743 Z" id="Shape" fill="#D0D0D0" fill-rule="nonzero"></path>
                    <path d="M9.59970752,9.3850625 C9.64015902,9.16517887 9.76427067,8.97294564 9.94921712,8.84375293 C10.0934364,8.74303776 10.2615838,8.68978516 10.4355213,8.68978516 C10.7061564,8.68978516 10.9589487,8.82035645 11.1117349,9.03905843 C11.2375402,9.21914046 11.2847074,9.43839388 11.2445907,9.65642627 C11.2041195,9.8763099 11.0799881,10.0685431 10.8950023,10.1977555 C10.7508224,10.2984707 10.582675,10.3517036 10.4087375,10.3517036 C10.1381221,10.3517036 9.88534945,10.2211323 9.73258301,10.0024303 C9.60679736,9.8223877 9.55961051,9.60313428 9.59970752,9.3850625 Z" id="Path" fill="#D0D0D0" fill-rule="nonzero"></path>
                    <path d="M17.9661958,10.1556104 L16.305971,7.77881901 L16.5425158,7.54227425 C16.745502,7.33928809 16.74434,7.0078182 16.5399162,6.80335498 L13.5039269,3.76738542 L13.5031982,3.76632194 C13.4675998,3.71540509 13.4232749,3.67118692 13.3722725,3.63571126 L11.0290003,1.29245882 C10.9294668,1.1929056 10.7973791,1.13809717 10.6571183,1.13809717 C10.5182756,1.13809717 10.3879406,1.19196029 10.2900023,1.28983952 L2.10261133,9.47728955 L2.28316602,9.74627035 C3.01588167,10.8378109 2.97635579,12.2763008 2.18485352,13.3257946 L1.97859814,13.5992853 L2.56573568,14.1864229 L2.44128923,14.3021055 L5.58567432,18.8036442 C5.68410498,18.9444761 5.84498535,19.0285892 6.01602783,19.0285892 L6.01604753,19.0285892 C6.12218465,19.0287619 6.22579152,18.9961909 6.31273779,18.9353184 L17.8396618,10.8836191 C18.0749855,10.7191742 18.131724,10.3926081 17.9661958,10.1556104 L17.9661958,10.1556104 Z M9.10042497,3.593507 L9.35890885,3.85199089 C9.38841983,3.88159253 9.42851894,3.89820067 9.47031787,3.89813395 C9.53404352,3.89813627 9.59149537,3.85974991 9.61588244,3.80087522 C9.6402695,3.74200052 9.62678889,3.67423253 9.58172689,3.62917285 L9.323243,3.37068896 L10.6582015,2.03571077 L12.4705822,3.84809147 L10.7786304,5.02992904 C10.8308786,4.96803076 10.8279442,4.87540983 10.7696302,4.81709587 L10.3384102,4.38587581 C10.2767781,4.32498219 10.1775429,4.32527903 10.1162762,4.38654028 C10.0550096,4.44780152 10.0547039,4.54703671 10.1155921,4.60867415 L10.5468122,5.03989421 C10.5763306,5.06948477 10.6164249,5.0860909 10.6582212,5.08603727 C10.6765169,5.08603727 10.6947339,5.08270898 10.7121237,5.07638721 L9.47413851,5.94113151 C9.32548792,5.89746404 9.17134203,5.87534561 9.01641032,5.87545199 C8.58044401,5.87545199 8.16976481,6.0460415 7.86001742,6.3557889 C7.57699479,6.63881152 7.41030469,7.00693197 7.38381624,7.40124544 L3.38079199,10.197401 C3.30767329,9.98610989 3.21635757,9.78156216 3.1078724,9.58605957 L9.10042497,3.593507 L9.10042497,3.593507 Z M3.00910693,13.5157236 C3.48834098,12.7467513 3.67397673,11.8466366 3.56264648,10.9746252 C3.81597054,11.8781273 3.64244661,12.8481951 3.09946305,13.6060994 L3.00910693,13.5157236 Z M6.08060449,18.1365293 L3.4705376,14.3999256 C4.41067057,13.3556901 4.71191016,11.8776152 4.25455615,10.5480135 L11.2021895,5.69501546 L11.4115171,5.99467952 C11.440992,6.03693704 11.4892868,6.0620886 11.5408083,6.06201335 C11.5995103,6.0619705 11.6533207,6.02929579 11.6804335,5.97723021 C11.7075464,5.92516462 11.703465,5.86234314 11.6698434,5.81422331 L11.4605158,5.51457894 L13.0082681,4.43345654 L17.1695534,10.3908159 L6.08060449,18.1365293 L6.08060449,18.1365293 Z" id="Shape" fill="#333333" fill-rule="nonzero"></path>
                    <path d="M15.1211991,11.3055042 C15.1506696,11.3477692 15.1989651,11.3729285 15.2504902,11.3728577 C15.309186,11.3728008 15.3629853,11.3401241 15.3900952,11.288064 C15.4172052,11.236004 15.4131319,11.1731905 15.3795254,11.1250677 L15.0302718,10.6251156 C14.9800025,10.5550197 14.8827163,10.5383709 14.8119989,10.587762 C14.7412815,10.6371532 14.7234205,10.7342242 14.7719258,10.8055521 L15.1211991,11.3055042 L15.1211991,11.3055042 Z M14.2118872,10.0037301 C14.2413575,10.0459929 14.2896553,10.071146 14.3411784,10.071064 C14.3998804,10.0710211 14.4536908,10.0383464 14.4808037,9.98628082 C14.5079165,9.93421524 14.5038352,9.87139375 14.4702135,9.82327393 L14.1209993,9.32332178 C14.07073,9.25322594 13.9734438,9.23657713 13.9027264,9.28596825 C13.832009,9.33535937 13.8141481,9.43243037 13.8626533,9.5037583 L14.2118872,10.0037301 L14.2118872,10.0037301 Z M12.9335884,8.17372331 L13.2828223,8.67367546 C13.3122972,8.71593297 13.360592,8.74108453 13.4121134,8.74100928 C13.4708155,8.74096643 13.5246259,8.70829172 13.5517387,8.65622614 C13.5788516,8.60416055 13.5747702,8.54133907 13.5411486,8.49321924 L13.1919147,7.99326709 C13.1679856,7.95900979 13.1314274,7.93566191 13.0902832,7.9283601 C13.0491389,7.92105829 13.0067792,7.93040073 12.9725234,7.95433203 C12.9382661,7.97826116 12.9149183,8.01481935 12.9076164,8.05596359 C12.9003146,8.09710784 12.9096571,8.13946753 12.9335884,8.17372331 L12.9335884,8.17372331 Z M12.3735104,7.37188167 C12.4029807,7.4141444 12.4512785,7.43929749 12.5028016,7.43921549 C12.5614968,7.43916753 12.6152994,7.4064956 12.6424108,7.35443692 C12.6695222,7.30237823 12.6654471,7.23956454 12.6318368,7.19144515 L12.2826029,6.691493 C12.2586737,6.65723571 12.2221155,6.63388782 12.1809713,6.62658601 C12.1398271,6.6192842 12.0974674,6.62862664 12.0632116,6.65255794 C11.9918799,6.70238069 11.9744398,6.80059387 12.0242568,6.87192952 L12.3735104,7.37188167 L12.3735104,7.37188167 Z M13.0123841,11.0722681 L6.31488444,15.7505802 C6.13655518,15.8751646 6.09297233,16.1207095 6.21753695,16.2990584 C6.29412695,16.408695 6.41646615,16.4674225 6.54079443,16.4674225 C6.61866455,16.4674225 6.69732243,16.4443805 6.76601514,16.3964256 L13.4634951,11.7181134 C13.6418244,11.5935291 13.6854269,11.3479842 13.5608426,11.1696353 C13.4362583,10.991306 13.1906937,10.9477231 13.0123841,11.0722681 Z M8.94210482,11.8647747 C8.8175402,11.6864455 8.57201497,11.6428429 8.39364632,11.7674469 L5.13174707,14.0459258 C4.95341781,14.1705101 4.90983496,14.416055 5.03439958,14.594404 C5.11098958,14.7040405 5.23332878,14.7627681 5.35765706,14.7627681 C5.43552718,14.7627681 5.51418506,14.7397261 5.58287777,14.6917515 L8.84477702,12.4132726 C9.02310628,12.2886489 9.06666943,12.0431237 8.94210482,11.8647747 Z" id="Shape" fill="#333333" fill-rule="nonzero"></path>
                </g>
            </g>
        </g>
    </g>
</svg>