<?xml version="1.0" encoding="UTF-8"?>
<svg width="18px" height="18px" viewBox="0 0 18 18" version="1.1" xmlns="http://www.w3.org/2000/svg" xmlns:xlink="http://www.w3.org/1999/xlink">
    <!-- Generator: Sketch 52.5 (67469) - http://www.bohemiancoding.com/sketch -->
    <title>icon/推荐按钮</title>
    <desc>Created with Sketch.</desc>
    <g id="一席H5" stroke="none" stroke-width="1" fill="none" fill-rule="evenodd">
        <g id="规范/切图画板" transform="translate(-59.000000, -397.000000)">
            <g id="icon/全局/推荐点赞/常规" transform="translate(58.000000, 396.000000)">
                <g id="点赞">
                    <rect id="Rectangle" fill="#000000" opacity="0" x="0" y="0" width="20" height="20"></rect>
                    <circle id="Oval" fill="#BFBFBF" cx="11.5" cy="4.5" r="3.5"></circle>
                    <path d="M4.85714286,17 L2.57142857,17 C2.25535714,17 2,16.7421875 2,16.4230769 L2,7.76923077 C2,7.45012019 2.25535714,7.19230769 2.57142857,7.19230769 L4.85714286,7.19230769 C5.17321429,7.19230769 5.42857143,7.45012019 5.42857143,7.76923077 L5.42857143,16.4230769 C5.42857143,16.7421875 5.17321429,17 4.85714286,17 Z M3.14285714,15.8461538 L4.28571429,15.8461538 L4.28571429,8.34615385 L3.14285714,8.34615385 L3.14285714,15.8461538 Z M15.1428571,17 L6.57142857,17 C6.25535714,17 6,16.7421875 6,16.4230769 L6,8.40564904 C6,8.046875 6.125,7.69170673 6.35357143,7.40685096 L9.68392857,2.67067308 C10.0267857,2.23978365 10.5357143,2 11.0642857,2 L12.2857143,2 C12.6285714,2 12.95,2.14242788 13.1678571,2.39302885 C13.3714286,2.62560096 13.4625,2.92127404 13.4232143,3.22776442 C13.4196429,3.25661058 13.4142857,3.28545673 13.4053571,3.31430288 L12.4714286,6.61538462 L16.2857143,6.61538462 C17.2303571,6.61538462 18,7.35096154 18,8.2578125 L18,14.2938702 C18,15.7848558 16.7178571,17 15.1428571,17 Z M7.14285714,15.8461538 L15.1428571,15.8461538 C16.0875,15.8461538 16.8571429,15.1484375 16.8571429,14.2920673 L16.8571429,8.2578125 C16.8571429,7.98918269 16.6,7.76923077 16.2857143,7.76923077 L11.7142857,7.76923077 C11.5357143,7.76923077 11.3660714,7.68449519 11.2589286,7.54026442 C11.1517857,7.39603365 11.1160714,7.20853365 11.1660714,7.03365385 L12.2625,3.15925481 L11.0660714,3.15384615 C10.8785714,3.15384615 10.7017857,3.23317308 10.5946429,3.36838942 L7.26428571,8.10276442 C7.17857143,8.21274038 7.14285714,8.30649038 7.14285714,8.40564904 L7.14285714,15.8461538 Z M12.3498214,3.20793269 L12.3841071,3.20793269 L12.3498214,3.20793269 Z" id="Shape" stroke="#333333" stroke-width="0.2" fill="#333333" fill-rule="nonzero"></path>
                </g>
            </g>
        </g>
    </g>
</svg>