<?xml version="1.0" encoding="UTF-8"?>
<svg width="21px" height="20px" viewBox="0 0 21 20" version="1.1" xmlns="http://www.w3.org/2000/svg" xmlns:xlink="http://www.w3.org/1999/xlink">
    <!-- Generator: Sketch 54.1 (76490) - https://sketchapp.com -->
    <title>icon/video/留言/常规</title>
    <desc>Created with Sketch.</desc>
    <defs>
        <linearGradient x1="0%" y1="84.7222222%" x2="100%" y2="15.2777778%" id="linearGradient-1">
            <stop stop-color="#FFFFFF" offset="0%"></stop>
            <stop stop-color="#B9B9B9" offset="100%"></stop>
        </linearGradient>
    </defs>
    <g id="一席移动设计" stroke="none" stroke-width="1" fill="none" fill-rule="evenodd">
        <g id="规范/切图画板" transform="translate(-181.000000, -320.000000)">
            <g id="icon/video/留言/常规" transform="translate(180.000000, 318.000000)">
                <rect id="Rectangle" fill="#FFFFFF" x="1.725" y="5.75" width="2.3" height="1.15"></rect>
                <rect id="Rectangle-Copy" fill="#FFFFFF" x="1.725" y="8.05" width="2.3" height="1.15"></rect>
                <g id="评论" stroke-width="1" transform="translate(1.150000, 2.300000)">
                    <rect id="Rectangle" fill="#000000" opacity="0" x="0" y="0" width="17.25" height="19.55"></rect>
                    <path d="M16.35,3.45 L4.35000001,3.45 C3.85294373,3.45 3.45,3.93011842 3.45,4.52237451 L3.45,11.3140797 C3.45,11.9063358 3.85294373,12.3864542 4.35000001,12.3864542 L7.95000001,12.3864542 L9.924,14.7385289 C10.03666,14.8738717 10.1900175,14.95 10.35,14.95 C10.5099825,14.95 10.66334,14.8738717 10.776,14.7385289 L12.75,12.3864542 L16.35,12.3864542 C16.8470563,12.3864542 17.25,11.9063358 17.25,11.3140797 L17.25,4.52237451 C17.25,3.93011842 16.8470563,3.45 16.35,3.45 Z" id="Path" fill="url(#linearGradient-1)" fill-rule="nonzero"></path>
                    <g id="Group" transform="translate(5.750000, 0.000000)" fill="#333333">
                        <rect id="Rectangle" x="0" y="0" width="1.15" height="1.15" rx="0.5"></rect>
                        <rect id="Rectangle-Copy" x="0" y="6.9" width="1.15" height="1.15" rx="0.5"></rect>
                        <rect id="Rectangle-Copy-2" x="4.025" y="6.9" width="1.15" height="1.15" rx="0.5"></rect>
                        <rect id="Rectangle-Copy-3" x="8.05" y="6.9" width="1.15" height="1.15" rx="0.5"></rect>
                    </g>
                    <path d="M10.35,19.55 C9.86575309,19.5495225 9.40149522,19.3336816 9.05929413,18.9499302 L6.44744118,16.0245902 L2.43529411,16.0245902 C1.09031831,16.0245902 1.64712031e-16,14.8034066 0,13.2970004 L0,2.72758981 C-1.64712031e-16,1.22118355 1.09031831,2.7672234e-16 2.43529411,0 L3.34852941,0 C3.68477336,2.3060195e-17 3.95735294,0.305295888 3.95735294,0.681897452 C3.95735294,1.05849901 3.68477336,1.3637949 3.34852941,1.3637949 L2.43529411,1.3637949 C1.76280621,1.3637949 1.21764705,1.97438668 1.21764705,2.72758981 L1.21764705,13.2970004 C1.21764705,14.0502035 1.76280621,14.6607953 2.43529411,14.6607953 L6.69705882,14.6607953 C6.85888593,14.6597473 7.01442706,14.7309035 7.12932353,14.8585455 L9.91773529,17.9884548 C10.032052,18.1175466 10.1876648,18.190159 10.35,18.190159 C10.5123352,18.190159 10.667948,18.1175466 10.7822647,17.9884548 L13.5706765,14.8585455 C13.6855729,14.7309035 13.8411141,14.6597473 14.0029412,14.6607953 L18.2647059,14.6607953 C18.9371938,14.6607953 19.4823529,14.0502035 19.4823529,13.2970004 L19.4823529,2.72758981 C19.4823529,1.97438668 18.9371938,1.3637949 18.2647059,1.3637949 L9.13235295,1.3637949 C8.796109,1.3637949 8.52352942,1.05849901 8.52352942,0.681897452 C8.52352942,0.305295888 8.796109,6.91805849e-17 9.13235295,0 L18.2647059,0 C19.6096817,1.43019831e-15 20.7,1.22118355 20.7,2.72758981 L20.7,13.2970004 C20.7,14.8034066 19.6096817,16.0245902 18.2647059,16.0245902 L14.2525588,16.0245902 L11.6407059,18.9499302 C11.2985048,19.3336816 10.8342469,19.5495225 10.35,19.55 L10.35,19.55 Z" id="Path" fill="#333333"></path>
                </g>
            </g>
        </g>
    </g>
</svg>