<?xml version="1.0" encoding="UTF-8"?>
<svg width="8px" height="14px" viewBox="0 0 8 14" version="1.1" xmlns="http://www.w3.org/2000/svg" xmlns:xlink="http://www.w3.org/1999/xlink">
    <!-- Generator: Sketch 54.1 (76490) - https://sketchapp.com -->
    <title>icon/我的/右箭头</title>
    <desc>Created with Sketch.</desc>
    <g id="一席移动设计" stroke="none" stroke-width="1" fill="none" fill-rule="evenodd">
        <g id="规范/切图画板" transform="translate(-172.000000, -446.000000)" fill="#000000">
            <g id="icon/我的/右箭头" transform="translate(168.000000, 445.000000)">
                <g id="右箭头">
                    <rect id="Rectangle-path" fill-rule="nonzero" opacity="0" x="0" y="0" width="16" height="16"></rect>
                    <path d="M4.82785472,14.1576971 C4.86670837,14.1576971 4.90561,14.1436106 4.93637314,14.1151659 L11.3311095,8.20024823 C11.3959295,8.14028889 11.3998789,8.03912547 11.3399195,7.97428944 C11.2799442,7.90948538 11.1787968,7.90552006 11.1139607,7.96547941 L4.71925634,13.8804291 C4.6544203,13.9403884 4.65048697,14.0415678 4.71044631,14.1063719 C4.74194497,14.1404288 4.78485986,14.1576971 4.82785472,14.1576971 Z M11.2292106,8.18432303 C11.2720136,8.18432303 11.3147046,8.16724661 11.3461873,8.1334775 C11.4064025,8.0688813 11.4028688,7.96771789 11.3382886,7.90748672 L4.87975553,1.88523381 C4.81517531,1.82503463 4.71402789,1.82855225 4.65378073,1.89313245 C4.59356556,1.95772866 4.59709917,2.05889206 4.66167938,2.11912323 L11.1201965,8.14137614 C11.1510076,8.17009267 11.1901491,8.18432303 11.2292106,8.18432303 Z" id="Shape" fill-rule="nonzero"></path>
                </g>
            </g>
        </g>
    </g>
</svg>