<?xml version="1.0" encoding="UTF-8"?>
<svg width="18px" height="19px" viewBox="0 0 18 19" version="1.1" xmlns="http://www.w3.org/2000/svg" xmlns:xlink="http://www.w3.org/1999/xlink">
    <!-- Generator: Sketch 55 (78076) - https://sketchapp.com -->
    <title>icon/导航/主导航/现场/高亮复制</title>
    <desc>Created with Sketch.</desc>
    <defs>
        <linearGradient x1="0%" y1="54.9861496%" x2="100%" y2="45.0138504%" id="linearGradient-1">
            <stop stop-color="#F7F7F7" offset="0%"></stop>
            <stop stop-color="#FA000D" offset="100%"></stop>
        </linearGradient>
    </defs>
    <g id="一席移动设计" stroke="none" stroke-width="1" fill="none" fill-rule="evenodd">
        <g id="规范/切图画板" transform="translate(-52.000000, -350.000000)">
            <g id="icon/导航/主导航/现场/高亮复制" transform="translate(50.000000, 349.000000)">
                <g id="坐标人">
                    <rect id="矩形" fill="#000000" fill-rule="nonzero" opacity="0" x="0" y="0" width="22" height="22"></rect>
                    <ellipse id="椭圆形" fill="url(#linearGradient-1)" fill-rule="nonzero" cx="11" cy="16.9583333" rx="8.70833333" ry="2.75"></ellipse>
                    <g id="编组" transform="translate(8.250000, 1.375000)">
                        <path d="M2.75,5.04166667 C1.48395308,5.04166667 0.458333333,4.01604692 0.458333333,2.75 C0.458333333,1.48395308 1.48395308,0.458333333 2.75,0.458333333 C4.01604692,0.458333333 5.04166667,1.48395308 5.04166667,2.75 C5.04166667,4.01604692 4.01503246,5.04166667 2.75,5.04166667 Z" id="路径" fill="#CE0900"></path>
                        <path d="M2.12185925,2.46523105 L2.12201742,2.46554943 C2.12193302,2.46538003 1.77243148,2.417363 1.50475983,2.46323384 C1.12051987,2.52908097 0.894531035,2.72171894 0.884148074,3.06356493 C0.853120117,4.06493097 1.72486951,4.89166667 2.79577435,4.89166667 C3.86281783,4.89166667 4.70833333,4.09745285 4.70833333,3.08813465 C4.70833333,2.89565923 4.63753187,2.81702485 4.46137975,2.7850909 C4.29719868,2.75532714 4.12528816,2.76801264 3.67018536,2.82871055 C3.60318663,2.83763321 3.60318663,2.83763321 3.53552702,2.84637625 C2.73697753,2.94814299 2.33133255,2.88813624 2.12185925,2.46523105 Z" id="路径" stroke="#CE0900" stroke-width="0.3" fill="#FFFFFF"></path>
                    </g>
                    <path d="M14.0968149,10.3293868 C12.7912184,12.9854976 11.7589467,14.8895909 11,16.0416667 C10.8441445,15.8100258 9.81171511,13.9059325 7.9027118,10.3293868 C7.83966316,10.3293868 7.79280268,10.3696202 7.79280268,10.2987262 C7.79280268,10.2880435 7.79024665,10.1798294 7.79280268,10.1701179 C7.85073927,8.64152505 8.45626177,7.35669127 9.6669661,6.875 L10.7136907,7.78658039 L11.297803,7.78658039 L12.2881386,6.875 C13.4988429,7.35669127 14.1496394,8.6424962 14.207576,10.1701179 C14.20928,10.1788583 14.207576,10.2880435 14.207576,10.2987262 C14.207576,10.3705914 14.1590115,10.3293868 14.0968149,10.3293868 Z" id="路径" stroke="#CE0900" fill="#CE0900" stroke-linecap="round"></path>
                </g>
            </g>
        </g>
    </g>
</svg>