<?xml version="1.0" encoding="UTF-8"?>
<svg width="20px" height="20px" viewBox="0 0 20 20" version="1.1" xmlns="http://www.w3.org/2000/svg" xmlns:xlink="http://www.w3.org/1999/xlink">
    <!-- Generator: Sketch 55 (78076) - https://sketchapp.com -->
    <title>icon/导航/主导航/现场/高亮复制 2</title>
    <desc>Created with Sketch.</desc>
    <g id="一席移动设计" stroke="none" stroke-width="1" fill="none" fill-rule="evenodd">
        <g id="规范/切图画板" transform="translate(-51.000000, -322.000000)">
            <g id="icon/导航/主导航/现场/常规复制" transform="translate(50.000000, 321.000000)">
                <g id="坐标人">
                    <rect id="矩形" fill="#000000" fill-rule="nonzero" opacity="0" x="0" y="0" width="22" height="22"></rect>
                    <ellipse id="椭圆形" stroke="#333333" fill="#FFFFFF" fill-rule="nonzero" cx="11" cy="16.9583333" rx="8.70833333" ry="2.75"></ellipse>
                    <g id="编组" transform="translate(8.250000, 1.375000)">
                        <path d="M2.75,5.04166667 C1.48395308,5.04166667 0.458333333,4.01604692 0.458333333,2.75 C0.458333333,1.48395308 1.48395308,0.458333333 2.75,0.458333333 C4.01604692,0.458333333 5.04166667,1.48395308 5.04166667,2.75 C5.04166667,4.01604692 4.01503246,5.04166667 2.75,5.04166667 Z" id="路径" fill="#333333"></path>
                        <path d="M2.03260192,2.51032767 C2.05965844,2.56588733 1.74755575,2.52308371 1.52165058,2.56179703 C1.17956129,2.62042081 0.992818996,2.77960414 0.984100103,3.06666201 C0.95488168,4.00962893 1.77949943,4.79166667 2.79577435,4.79166667 C3.8089401,4.79166667 4.60833333,4.04077665 4.60833333,3.08813465 C4.60833333,2.94564972 4.5735904,2.9070631 4.44354188,2.88348709 C4.29407393,2.85639061 4.12617076,2.86878041 3.68340549,2.92783284 C3.61627186,2.93677357 3.61627186,2.93677357 3.54816873,2.94557397 C2.70780731,3.0526692 2.26958416,2.98795792 2.03260192,2.51032767 Z" id="路径" stroke="#333333" stroke-width="0.5" fill="#FFFFFF"></path>
                    </g>
                    <ellipse id="椭圆形" fill="#333333" cx="11" cy="16.9583333" rx="3.66666667" ry="1"></ellipse>
                    <path d="M14.0968149,10.3293868 C12.7912184,12.9854976 11.7589467,14.8895909 11,16.0416667 C10.8441445,15.8100258 9.81171511,13.9059325 7.9027118,10.3293868 C7.83966316,10.3293868 7.79280268,10.3696202 7.79280268,10.2987262 C7.79280268,10.2880435 7.79024665,10.1798294 7.79280268,10.1701179 C7.85073927,8.64152505 8.45626177,7.35669127 9.6669661,6.875 L10.7136907,7.78658039 L11.297803,7.78658039 L12.2881386,6.875 C13.4988429,7.35669127 14.1496394,8.6424962 14.207576,10.1701179 C14.20928,10.1788583 14.207576,10.2880435 14.207576,10.2987262 C14.207576,10.3705914 14.1590115,10.3293868 14.0968149,10.3293868 Z" id="路径" stroke="#333333" fill="#FFFFFF" stroke-linecap="round"></path>
                </g>
            </g>
        </g>
    </g>
</svg>