<?xml version="1.0" encoding="UTF-8"?>
<svg width="22px" height="22px" viewBox="0 0 22 22" version="1.1" xmlns="http://www.w3.org/2000/svg" xmlns:xlink="http://www.w3.org/1999/xlink">
    <!-- Generator: Sketch 54.1 (76490) - https://sketchapp.com -->
    <title>icon/button/搜索/常规</title>
    <desc>Created with Sketch.</desc>
    <defs>
        <linearGradient x1="0%" y1="100%" x2="100%" y2="0%" id="linearGradient-1">
            <stop stop-color="#F7F7F7" offset="0%"></stop>
            <stop stop-color="#FA000D" offset="100%"></stop>
        </linearGradient>
    </defs>
    <g id="一席移动设计" stroke="none" stroke-width="1" fill="none" fill-rule="evenodd">
        <g id="规范/切图画板" transform="translate(-147.000000, -347.000000)">
            <g id="icon/header/搜索/高亮" transform="translate(145.000000, 345.000000)">
                <g id="分类">
                    <rect id="矩形" fill="#000000" fill-rule="nonzero" opacity="0" x="0" y="0" width="26" height="26"></rect>
                    <circle id="Oval" fill="url(#linearGradient-1)" fill-rule="nonzero" cx="18" cy="18" r="3"></circle>
                    <path d="M18.0654297,22.7779297 C15.4197266,22.7779297 13.2666016,20.6248047 13.2666016,17.9791016 C13.2666016,15.3333984 15.4197266,13.1802734 18.0654297,13.1802734 C20.7111328,13.1802734 22.8642578,15.3333984 22.8642578,17.9791016 C22.8642578,20.6248047 20.7111328,22.7779297 18.0654297,22.7779297 Z M18.0654297,14.2466797 C16.0087891,14.2466797 14.3330078,15.9199219 14.3330078,17.9791016 C14.3330078,20.0357422 16.0087891,21.7115234 18.0654297,21.7115234 C20.1220703,21.7115234 21.7978516,20.0357422 21.7978516,17.9791016 C21.7978516,15.9199219 20.1220703,14.2466797 18.0654297,14.2466797 Z M9.53417969,12.0986328 L5.26855469,12.0986328 C3.7984375,12.0986328 2.60253906,10.9027344 2.60253906,9.43261719 L2.60253906,5.16699219 C2.60253906,3.696875 3.7984375,2.50097656 5.26855469,2.50097656 L9.53417969,2.50097656 C11.0042969,2.50097656 12.2001953,3.696875 12.2001953,5.16699219 L12.2001953,9.43261719 C12.2001953,10.9027344 11.0042969,12.0986328 9.53417969,12.0986328 Z M5.26855469,3.56738281 C4.3875,3.56738281 3.66894531,4.2859375 3.66894531,5.16699219 L3.66894531,9.43261719 C3.66894531,10.3136719 4.3875,11.0322266 5.26855469,11.0322266 L9.53417969,11.0322266 C10.4152344,11.0322266 11.1337891,10.3136719 11.1337891,9.43261719 L11.1337891,5.16699219 C11.1337891,4.2859375 10.4152344,3.56738281 9.53417969,3.56738281 L5.26855469,3.56738281 Z M9.53417969,22.7626953 L5.26855469,22.7626953 C3.7984375,22.7626953 2.60253906,21.5667969 2.60253906,20.0966797 L2.60253906,15.8310547 C2.60253906,14.3609375 3.7984375,13.1650391 5.26855469,13.1650391 L9.53417969,13.1650391 C11.0042969,13.1650391 12.2001953,14.3609375 12.2001953,15.8310547 L12.2001953,20.0966797 C12.2001953,21.5667969 11.0042969,22.7626953 9.53417969,22.7626953 Z M5.26855469,14.2314453 C4.3875,14.2314453 3.66894531,14.95 3.66894531,15.8310547 L3.66894531,20.0966797 C3.66894531,20.9777344 4.3875,21.6962891 5.26855469,21.6962891 L9.53417969,21.6962891 C10.4152344,21.6962891 11.1337891,20.9777344 11.1337891,20.0966797 L11.1337891,15.8310547 C11.1337891,14.95 10.4152344,14.2314453 9.53417969,14.2314453 L5.26855469,14.2314453 Z M20.1982422,12.0986328 L15.9326172,12.0986328 C14.4625,12.0986328 13.2666016,10.9027344 13.2666016,9.43261719 L13.2666016,5.16699219 C13.2666016,3.696875 14.4625,2.50097656 15.9326172,2.50097656 L20.1982422,2.50097656 C21.6683594,2.50097656 22.8642578,3.696875 22.8642578,5.16699219 L22.8642578,9.43261719 C22.8642578,10.9027344 21.6683594,12.0986328 20.1982422,12.0986328 Z M15.9326172,3.56738281 C15.0515625,3.56738281 14.3330078,4.2859375 14.3330078,5.16699219 L14.3330078,9.43261719 C14.3330078,10.3136719 15.0515625,11.0322266 15.9326172,11.0322266 L20.1982422,11.0322266 C21.0792969,11.0322266 21.7978516,10.3136719 21.7978516,9.43261719 L21.7978516,5.16699219 C21.7978516,4.2859375 21.0792969,3.56738281 20.1982422,3.56738281 L15.9326172,3.56738281 Z M22.8642578,23.2958984 C22.7271484,23.2958984 22.5925781,23.2425781 22.4884766,23.1384766 L21.7089844,22.3615234 C21.5007812,22.1533203 21.5007812,21.815625 21.7089844,21.6074219 C21.9171875,21.3992187 22.2548828,21.3992187 22.4630859,21.6074219 L23.2400391,22.384375 C23.4482422,22.5925781 23.4482422,22.9302734 23.2400391,23.1384766 C23.1359375,23.2451172 23.0013672,23.2958984 22.8642578,23.2958984 L22.8642578,23.2958984 Z" id="形状" fill="#333333"></path>
                </g>
            </g>
        </g>
    </g>
</svg>