<?xml version="1.0" encoding="UTF-8"?>
<svg width="20px" height="21px" viewBox="0 0 20 21" version="1.1" xmlns="http://www.w3.org/2000/svg" xmlns:xlink="http://www.w3.org/1999/xlink">
    <!-- Generator: Sketch 54.1 (76490) - https://sketchapp.com -->
    <title>icon/button/搜索/灰复制 2</title>
    <desc>Created with Sketch.</desc>
    <defs>
        <linearGradient x1="0%" y1="100%" x2="100%" y2="0%" id="linearGradient-1">
            <stop stop-color="#F7F7F7" offset="0%"></stop>
            <stop stop-color="#FA000D" offset="100%"></stop>
        </linearGradient>
    </defs>
    <g id="一席移动设计" stroke="none" stroke-width="1" fill="none" fill-rule="evenodd">
        <g id="规范/切图画板" transform="translate(-180.000000, -347.000000)">
            <g id="icon/header/搜索/高亮-20复制" transform="translate(180.000000, 347.000000)">
                <g id="搜索">
                    <rect id="Rectangle-path" fill="#000000" fill-rule="nonzero" opacity="0" x="0" y="0" width="20" height="20"></rect>
                    <circle id="Oval" fill="url(#linearGradient-1)" fill-rule="nonzero" cx="6" cy="12" r="4"></circle>
                    <path d="M19.1428571,20 C18.9285714,20 18.7142857,19.9142857 18.5428571,19.7428571 L14.2571429,15.4571428 C13.9142857,15.1142857 13.9142857,14.6 14.2571429,14.2571429 C14.6,13.9142857 15.1142857,13.9142857 15.4571429,14.2571429 L19.7428571,18.5428571 C20.0857143,18.8857143 20.0857143,19.4 19.7428571,19.7428571 C19.5714286,19.9142857 19.3571428,20 19.1428571,20 Z" id="Shape" fill="#333333" fill-rule="nonzero"></path>
                    <path d="M8.5,1.61904762 C12.3074603,1.61904762 15.3809524,4.69253969 15.3809524,8.5 C15.3809524,12.3074603 12.3074603,15.3809524 8.5,15.3809524 C4.69253969,15.3809524 1.61904762,12.3074603 1.61904762,8.5 C1.61904762,4.69253967 4.69253969,1.61904762 8.5,1.61904762 L8.5,1.61904762 Z M8.5,0 C3.80263158,0 0,3.80263158 0,8.5 C0,13.1973684 3.80263158,17 8.5,17 C13.1973684,17 17,13.1973684 17,8.5 C17,3.80263158 13.1973684,0 8.5,0 Z" id="Shape" fill="#333333" fill-rule="nonzero"></path>
                </g>
            </g>
        </g>
    </g>
</svg>