<?xml version="1.0" encoding="UTF-8"?>
<svg width="20px" height="20px" viewBox="0 0 20 20" version="1.1" xmlns="http://www.w3.org/2000/svg" xmlns:xlink="http://www.w3.org/1999/xlink">
    <!-- Generator: Sketch 54.1 (76490) - https://sketchapp.com -->
    <title>icon/button/搜索/灰复制</title>
    <desc>Created with Sketch.</desc>
    <defs>
        <linearGradient x1="0%" y1="100%" x2="100%" y2="0%" id="linearGradient-1">
            <stop stop-color="#FFFFFF" offset="0%"></stop>
            <stop stop-color="#B9B9B9" offset="100%"></stop>
        </linearGradient>
    </defs>
    <g id="一席移动设计" stroke="none" stroke-width="1" fill="none" fill-rule="evenodd">
        <g id="规范/切图画板" transform="translate(-180.000000, -319.000000)">
            <g id="icon/header/搜索/黑" transform="translate(180.000000, 319.000000)">
                <g id="搜索" transform="translate(0.000000, 0.769231)">
                    <rect id="Rectangle-path" fill="#000000" fill-rule="nonzero" opacity="0" x="0.769230769" y="0.769230769" width="18.4615385" height="18.4615385"></rect>
                    <circle id="Oval" fill="url(#linearGradient-1)" fill-rule="nonzero" cx="6.15384615" cy="10.7692308" r="3.84615385"></circle>
                    <path d="M18.3516483,19.2307692 C18.1318681,19.2307692 17.9120879,19.1428572 17.7362637,18.967033 L13.3406593,14.5714286 C12.989011,14.2197802 12.989011,13.6923077 13.3406593,13.3406593 C13.6923077,12.989011 14.2197802,12.989011 14.5714286,13.3406593 L18.967033,17.7362637 C19.3186813,18.0879121 19.3186813,18.6153846 18.967033,18.967033 C18.7912088,19.1428572 18.5714286,19.2307692 18.3516483,19.2307692 Z" id="Shape" fill="#BDBDBD"></path>
                    <path d="M8.07692308,1.53846154 C11.6948718,1.53846154 14.6153846,4.45897436 14.6153846,8.07692308 C14.6153846,11.6948718 11.6948718,14.6153846 8.07692308,14.6153846 C4.45897436,14.6153846 1.53846154,11.6948718 1.53846154,8.07692308 C1.53846154,4.45897435 4.45897436,1.53846154 8.07692308,1.53846154 L8.07692308,1.53846154 Z M8.07692308,0 C3.61336033,0 0,3.61336033 0,8.07692308 C0,12.5404858 3.61336033,16.1538462 8.07692308,16.1538462 C12.5404858,16.1538462 16.1538462,12.5404858 16.1538462,8.07692308 C16.1538462,3.61336033 12.5404858,0 8.07692308,0 Z" id="Shape" fill="#BDBDBD"></path>
                </g>
            </g>
        </g>
    </g>
</svg>