<?xml version="1.0" encoding="UTF-8"?>
<svg width="20px" height="20px" viewBox="0 0 20 20" version="1.1" xmlns="http://www.w3.org/2000/svg" xmlns:xlink="http://www.w3.org/1999/xlink">
    <!-- Generator: Sketch 54.1 (76490) - https://sketchapp.com -->
    <title>icon/我的/设置复制</title>
    <desc>Created with Sketch.</desc>
    <defs>
        <linearGradient x1="0%" y1="100%" x2="100%" y2="0%" id="linearGradient-1">
            <stop stop-color="#F7F7F7" offset="0%"></stop>
            <stop stop-color="#FA000D" offset="100%"></stop>
        </linearGradient>
    </defs>
    <g id="一席移动设计" stroke="none" stroke-width="1" fill="none" fill-rule="evenodd">
        <g id="规范/切图画板" transform="translate(-51.000000, -443.000000)">
            <g id="icon/我的/设置/常规-20" transform="translate(51.000000, 443.000000)">
                <g id="设置2">
                    <rect id="矩形" fill="#000000" fill-rule="nonzero" opacity="0" x="0" y="0" width="20" height="20"></rect>
                    <circle id="椭圆形" fill="url(#linearGradient-1)" fill-rule="nonzero" cx="10" cy="10" r="2"></circle>
                    <path d="M19.3243243,12.3619271 L17.7849589,11.4688602 C17.867215,10.9988249 17.9259694,10.5170388 17.9259694,10.0117509 C17.9259694,9.51821389 17.867215,9.02467688 17.7849589,8.55464162 L19.3360752,7.64982375 C19.9706228,7.28554643 20.1821387,6.47473563 19.8178613,5.84018803 L18.4900117,3.52526441 C18.1257344,2.89071682 17.3149236,2.67920096 16.6921269,3.04347828 L15.8695652,3.52526441 C15.6580493,3.64277322 15.5287896,3.87779086 15.5405405,4.12455936 C15.5405405,4.12455936 15.5405405,4.13631023 15.5405405,4.13631023 C15.5640423,4.62984725 16.1045828,4.93537016 16.5276146,4.67685078 L16.7743831,4.53584021 C17.0916569,4.34782611 17.5029377,4.46533492 17.6792009,4.78260873 L18.3372503,5.9341951 C18.5135135,6.25146889 18.4077556,6.66274975 18.0904818,6.85076385 L16.2455934,7.92009404 C16.4688602,8.5781434 16.5981199,9.28319627 16.5981199,10.0235018 C16.5981199,10.7638073 16.4688602,11.4688602 16.2455934,12.1269096 L18.0904818,13.1962397 C18.4077556,13.3842538 18.5135135,13.7955347 18.3372503,14.1128085 L17.6792009,15.2643949 C17.5029377,15.5816687 17.0916569,15.6874266 16.7743831,15.5111634 L14.9412456,14.4418332 C14.012926,15.4994125 12.7555817,16.2632198 11.3219741,16.5569918 L11.3219741,18.025852 C11.3219741,18.3901293 11.0164512,18.6956522 10.6521739,18.6956522 L9.33607521,18.6956522 C8.97179789,18.6956522 8.67802586,18.4018801 8.67802586,18.0376028 L8.67802586,16.5687427 C7.24441834,16.2749706 5.98707404,15.5111633 5.05875441,14.453584 L3.22561693,15.5229142 C2.90834314,15.7109283 2.50881316,15.5934195 2.32079906,15.2761457 L1.66274971,14.1245593 C1.47473561,13.8072855 1.59224441,13.3960047 1.90951822,13.2079906 L3.75440658,12.1386604 C3.53113984,11.480611 3.40188014,10.7755582 3.40188014,10.0352526 C3.40188014,9.29494711 3.53113982,8.58989424 3.75440658,7.93184488 L1.89776732,6.82726205 C1.58049354,6.63924795 1.47473561,6.23971799 1.65099881,5.92244418 L2.30904816,4.75910693 C2.48531139,4.44183314 2.89659223,4.33607521 3.21386604,4.51233842 L5.05875441,5.59341951 C5.98707404,4.5358402 7.24441834,3.77203291 8.67802586,3.47826088 L8.67802586,2.0094007 C8.67802586,1.64512338 8.98354877,1.33960047 9.34782609,1.33960047 L10.6639248,1.33960047 C11.0282021,1.33960047 11.3219742,1.6333725 11.3219742,1.99764982 L11.3219742,3.46650998 C12.0622797,3.61927145 12.7555817,3.9012926 13.3783784,4.2773208 C13.7309048,4.48883666 14.2009401,4.34782609 14.3419507,3.94829613 C14.3419507,3.94829613 14.3419507,3.93654525 14.3419507,3.93654525 C14.4477086,3.6545241 14.3419507,3.33725031 14.0951821,3.17273797 C13.6368978,2.89071682 13.1551116,2.6439483 12.6380729,2.4559342 L12.6380729,1.32784959 C12.6380729,0.587544063 12.0505288,0 11.3219742,0 L8.67802586,0 C7.94947121,0 7.36192715,0.599294941 7.36192715,1.32784959 L7.36192715,2.47943596 C6.43360752,2.80846062 5.61104584,3.32549941 4.88249119,3.94829611 L3.31962398,3.04347824 C2.68507639,2.67920092 1.87426559,2.89071678 1.50998826,3.52526438 L0.182138652,5.82843713 C-0.182138652,6.47473561 0.0411280859,7.27379553 0.663924785,7.64982373 L2.21504111,8.5546416 C2.13278494,9.02467686 2.07403055,9.50646299 2.07403055,10.0117509 C2.07403055,10.5052879 2.13278496,10.9988249 2.21504111,11.4688602 L0.663924785,12.373678 C0.0293771875,12.7379554 -0.182138672,13.560517 0.182138652,14.1833137 L1.50998824,16.4982374 C1.87426557,17.132785 2.68507637,17.3560517 3.31962396,16.9800235 L4.88249117,16.0752056 C5.61104582,16.6980023 6.44535838,17.2150411 7.36192713,17.5440658 L7.36192713,18.6721504 C7.36192713,19.4124559 7.94947119,20 8.67802584,20 L11.3219741,20 C12.0505288,20 12.6380729,19.400705 12.6380729,18.6721504 L12.6380729,17.5440658 C13.5663925,17.2150411 14.3889542,16.6980023 15.1175088,16.0752056 L16.680376,16.9800235 C17.3149236,17.3443008 18.1257344,17.132785 18.4900117,16.4982374 L19.8061104,14.1950646 C20.1821387,13.5487662 19.9588719,12.7262045 19.3243243,12.3619271 Z M12.2620446,8.66039953 C11.9565217,8.78965922 11.8037603,9.14218566 11.8977673,9.45945945 C11.9447708,9.63572268 11.9800235,9.8119859 11.9800235,10.0117509 C11.9800235,11.1163337 11.0869565,12.0094007 9.99412455,12.0094007 C8.9012926,12.0094007 8.00822561,11.1163337 8.00822561,10.0117509 C8.00822561,8.90716803 8.90129258,8.01410105 9.99412455,8.01410105 C10.3113983,8.01410105 10.6051704,8.09635723 10.8636898,8.22561691 C11.13396,8.36662748 11.4747356,8.27262043 11.6627497,8.02585193 C11.6627497,8.02585193 11.6627497,8.01410105 11.6745006,8.01410105 C11.93302,7.68507639 11.8155111,7.20329023 11.4394829,7.01527615 C11.0047003,6.80376029 10.5111633,6.67450059 9.99412455,6.67450059 C8.17273795,6.67450059 6.69212689,8.16686252 6.69212689,10 C6.69212689,11.8448884 8.17273795,13.3254994 9.99412455,13.3254994 C11.8155112,13.3254994 13.2961222,11.8331375 13.2961222,10 C13.2961222,9.68272621 13.2491187,9.37720328 13.1668625,9.08343125 C13.0611046,8.69565217 12.6380729,8.48413631 12.2737955,8.64864863 C12.2737955,8.64864865 12.2737955,8.64864865 12.2620446,8.66039953 Z" id="形状" fill="#333333"></path>
                </g>
            </g>
        </g>
    </g>
</svg>