<?xml version="1.0" encoding="UTF-8"?>
<svg width="16px" height="16px" viewBox="0 0 16 16" version="1.1" xmlns="http://www.w3.org/2000/svg" xmlns:xlink="http://www.w3.org/1999/xlink">
    <!-- Generator: Sketch 54.1 (76490) - https://sketchapp.com -->
    <title>icon/分享图标</title>
    <desc>Created with Sketch.</desc>
    <defs>
        <linearGradient x1="0%" y1="100%" x2="100%" y2="0%" id="linearGradient-1">
            <stop stop-color="#FFFFFF" offset="0%"></stop>
            <stop stop-color="#B9B9B9" offset="100%"></stop>
        </linearGradient>
    </defs>
    <g id="一席移动设计" stroke="none" stroke-width="1" fill="none" fill-rule="evenodd">
        <g id="规范/切图画板" transform="translate(-525.000000, -322.000000)">
            <g id="icon/全局/分享图标/常规" transform="translate(525.000000, 322.000000)">
                <rect id="矩形" fill="url(#linearGradient-1)" fill-rule="nonzero" x="1.6" y="7.2" width="7.2" height="7.2" rx="1.5"></rect>
                <g id="分享" stroke-width="1" fill-rule="evenodd" fill="#000000">
                    <rect id="Rectangle-path" fill-rule="nonzero" opacity="0" x="0" y="0" width="16" height="16"></rect>
                    <path d="M7.68051261,0.975002953 L2.25273664,0.975002953 C1.54737488,0.975002953 0.974835063,1.547207 0.974835063,2.25290453 L0.974835063,13.7471275 C0.974835063,14.4524892 1.54705509,15.025013 2.25273664,15.025013 L13.7469436,15.025013 C14.4523213,15.025013 15.0248451,14.452809 15.0248451,13.7471275 L15.0248452,8.33615609 C15.0251649,8.33054391 15.0251649,8.3249317 15.0251649,8.31931952 C15.0251649,8.0548908 14.8106224,7.84034827 14.5458739,7.84034827 C14.2814452,7.84034827 14.0669026,8.05489081 14.0669026,8.31931952 L14.0669026,13.4275042 C14.0669026,13.7808006 13.778762,14.0670705 13.4273203,14.0670705 L2.57235994,14.0670705 C2.21904748,14.0670705 1.93279356,13.7789299 1.93279356,13.4275042 L1.93279356,2.57252783 C1.93279356,2.21921538 2.2209342,1.93294547 2.57235994,1.93294547 L7.68052859,1.93294547 L7.68052859,1.93294547 C7.94527709,1.93294547 8.15981964,1.71840292 8.15981964,1.45397422 C8.15981964,1.18954552 7.94526111,0.975002953 7.68051261,0.975002953 L7.68051261,0.975002953 Z M15.025149,1.4539742 C15.025149,1.45272705 15.0248292,1.45178369 15.0248292,1.45053653 L15.0248292,1.40408802 C15.0248292,1.29619317 14.9786845,1.19889914 14.9053902,1.1234303 C14.9004015,1.11749831 14.8950931,1.11188613 14.8898007,1.10627392 C14.886363,1.10317203 14.8832612,1.10003816 14.8798235,1.09724005 C14.8040509,1.022091 14.7055097,0.975002922 14.5960479,0.975002922 L11.6221122,0.975002953 C11.3851209,0.975002953 11.1930271,1.1895455 11.1930271,1.4539742 C11.1930271,1.71840291 11.3851209,1.93294545 11.6221122,1.93294545 L13.3836539,1.93294545 L8.68151394,6.63510141 C8.49471259,6.82190275 8.49471259,7.12529705 8.68151394,7.3124022 C8.86860309,7.49949136 9.17202938,7.49949136 9.35881473,7.3124022 L14.0668867,2.60433028 L14.0668867,4.37771991 C14.0668867,4.61471122 14.2814292,4.80680498 14.5458579,4.80680498 C14.8102866,4.80680498 15.0248292,4.61471122 15.0248292,4.37771991 L15.0248292,1.45741188 C15.0248292,1.45616472 15.025149,1.45522136 15.025149,1.4539742 Z" id="Shape" fill-rule="nonzero"></path>
                </g>
            </g>
        </g>
    </g>
</svg>