<?xml version="1.0" encoding="UTF-8"?>
<svg width="19px" height="19px" viewBox="0 0 19 19" version="1.1" xmlns="http://www.w3.org/2000/svg" xmlns:xlink="http://www.w3.org/1999/xlink">
    <!-- Generator: Sketch 52.5 (67469) - http://www.bohemiancoding.com/sketch -->
    <title>icon/全局/右上箭头/常规</title>
    <desc>Created with Sketch.</desc>
    <g id="一席H5" stroke="none" stroke-width="1" fill="none" fill-rule="evenodd">
        <g id="规范/切图画板" transform="translate(-767.000000, -321.000000)">
            <g id="icon/全局/右上箭头/常规" transform="translate(768.000000, 321.000000)">
                <g id="上移" transform="translate(-3.750000, -3.750000)">
                    <rect id="Rectangle" fill="#000000" opacity="0" x="3.76756098" y="3.76756098" width="17.982439" height="17.982439"></rect>
                    <circle id="Oval" fill="#D0D0D0" cx="16.125" cy="16.125" r="4.125"></circle>
                    <path d="M15.7551044,12.8408254 C15.7569439,12.9628856 15.7114251,13.0809123 15.6281034,13.1701288 C15.5434589,13.2553996 15.4279343,13.3028255 15.3077912,13.3016254 C15.1883511,13.3026022 15.0736073,13.2551639 14.9897268,13.1701288 L13.2184566,11.3437873 L13.2184566,21.2768371 C13.2184566,21.5398302 13.0161541,21.7488761 12.7599044,21.7488761 C12.636304,21.7476995 12.5183045,21.6971543 12.4321776,21.6084944 C12.3460508,21.5198344 12.2989465,21.4004196 12.3013522,21.2768371 L12.3013522,11.3550263 L10.5323298,13.1813678 C10.4473984,13.2662087 10.3320626,13.3135571 10.2120176,13.3128644 C10.0918744,13.3140645 9.97634988,13.2666386 9.89170537,13.1813678 C9.80838367,13.0921513 9.76286486,12.9741247 9.76470439,12.8520644 C9.76470439,12.7306829 9.80628878,12.6081776 9.89170537,12.5205132 L12.4407161,9.89282927 C12.5256474,9.80798839 12.6409832,9.76064001 12.7610283,9.76133268 C12.879038,9.76133268 12.9959239,9.80516488 13.0813405,9.89282927 L15.6303512,12.5205132 C15.7090744,12.6088243 15.7533608,12.7225327 15.7551044,12.8408254 M21.75,12.9217463 C21.75,16.8554049 19.2931493,20.3428741 15.6382185,21.6050166 C15.5758472,21.6326159 15.5086036,21.6475165 15.4404117,21.6488488 C15.3024002,21.6476616 15.1705135,21.5916956 15.0737678,21.4932636 C14.9770221,21.3948317 14.923343,21.2619977 14.9245405,21.1239863 C14.9245405,20.9003298 15.0672761,20.7002751 15.2650829,20.6317171 C18.535639,19.526921 20.7283727,16.4305698 20.7283727,12.9329854 C20.7283727,8.46097756 17.1521151,4.81840976 12.7644,4.81840976 C8.37443707,4.81840976 4.79817951,8.45985366 4.79817951,12.9318615 C4.79817951,16.5294732 7.16848976,19.7280995 10.5581795,20.7328683 C10.7654598,20.8070215 10.902434,21.0050239 10.898722,21.2251376 C10.8999194,21.363149 10.8462404,21.4959829 10.7494946,21.5944148 C10.6527489,21.6928468 10.5208622,21.7488128 10.3828507,21.75 C10.3390185,21.75 10.3064254,21.738761 10.2727083,21.738761 L10.2614693,21.738761 C10.2502302,21.738761 10.2288761,21.738761 10.2176371,21.727522 C8.37594058,21.164165 6.76179323,20.0283564 5.60963707,18.4850634 C4.40424646,16.8854289 3.75640176,14.9347887 3.76531317,12.9318615 C3.76531317,10.484002 4.70939122,8.18112585 6.41097951,6.4491922 C8.07844003,4.73262862 10.3701584,3.76477091 12.7632761,3.76643707 C17.7129424,3.74620683 21.75,7.85856585 21.75,12.9217463" id="Shape" fill="#333333" transform="translate(12.757611, 12.758181) rotate(-315.000000) translate(-12.757611, -12.758181) "></path>
                </g>
            </g>
        </g>
    </g>
</svg>