<?xml version="1.0" encoding="UTF-8"?>
<svg width="16px" height="16px" viewBox="0 0 16 16" version="1.1" xmlns="http://www.w3.org/2000/svg" xmlns:xlink="http://www.w3.org/1999/xlink">
    <!-- Generator: Sketch 54.1 (76490) - https://sketchapp.com -->
    <title>icon/全局/取消/常规</title>
    <desc>Created with Sketch.</desc>
    <defs>
        <linearGradient x1="0%" y1="100%" x2="100%" y2="0%" id="linearGradient-1">
            <stop stop-color="#FFFFFF" offset="0%"></stop>
            <stop stop-color="#B9B9B9" offset="100%"></stop>
        </linearGradient>
    </defs>
    <g id="一席移动设计" stroke="none" stroke-width="1" fill="none" fill-rule="evenodd">
        <g id="规范/切图画板" transform="translate(-551.000000, -323.000000)">
            <g id="icon/全局/取消/常规" transform="translate(551.000000, 323.000000)">
                <g id="Group" transform="translate(-1.000000, -1.000000)">
                    <rect id="Rectangle" fill="#000000" opacity="0" x="1" y="1" width="16" height="16"></rect>
                    <circle id="Oval" fill="url(#linearGradient-1)" fill-rule="nonzero" cx="10.5" cy="11.5" r="4.5"></circle>
                    <path d="M6.86875,10.9671875 C6.775,10.9671875 6.6796875,10.93125 6.6078125,10.859375 C6.4640625,10.715625 6.4640625,10.48125 6.6078125,10.3375 L10.8375,6.1078125 C10.98125,5.9640625 11.215625,5.9640625 11.359375,6.1078125 C11.503125,6.2515625 11.503125,6.4859375 11.359375,6.6296875 L7.1296875,10.859375 C7.0578125,10.93125 6.9625,10.9671875 6.86875,10.9671875 Z" id="Path" fill="#333333"></path>
                    <path d="M11.0984375,10.965625 C11.0046875,10.965625 10.909375,10.9296875 10.8375,10.8578125 L6.6078125,6.6296875 C6.4640625,6.4859375 6.4640625,6.2515625 6.6078125,6.1078125 C6.7515625,5.9640625 6.9859375,5.9640625 7.1296875,6.1078125 L11.359375,10.3359375 C11.503125,10.4796875 11.503125,10.7140625 11.359375,10.8578125 C11.2875,10.9296875 11.1921875,10.965625 11.0984375,10.965625 Z" id="Path" fill="#333333"></path>
                    <path d="M3.31979521,14.1119827 C3.21354521,14.1119827 3.10885771,14.0666702 3.03542021,13.9776077 C2.82292021,13.7213577 2.62760771,13.4463577 2.45417021,13.1619827 C2.34792021,12.9885452 2.40260771,12.7604202 2.57760771,12.6541702 C2.75104521,12.5479202 2.97917021,12.6026077 3.08542021,12.7776077 C3.24010771,13.0322952 3.41510771,13.2776077 3.60573271,13.5072952 C3.73542021,13.6635452 3.71354521,13.8963577 3.55729521,14.0276077 C3.48542021,14.0838577 3.40260771,14.1119827 3.31979521,14.1119827 L3.31979521,14.1119827 Z" id="Path" fill="#333333"></path>
                    <path d="M8.99040164,16.9890625 C7.32776238,16.9890625 5.73477182,16.483663 4.38287288,15.5282259 C4.19178545,15.3942861 4.14713885,15.1299782 4.28107864,14.9406767 C4.41501843,14.7495892 4.67932628,14.7049426 4.86862785,14.8388824 C6.07765768,15.6925253 7.50277704,16.1443489 8.99040164,16.1443489 C12.933589,16.1443489 16.1427864,12.9351515 16.1427864,8.99196414 C16.1427864,5.04877673 12.933589,1.83957938 8.99040164,1.83957938 C5.04721423,1.83957938 1.83980274,5.0505626 1.83980274,8.99375 C1.83980274,9.67773586 1.93623939,10.3545783 2.12732682,11.0046327 C2.19340379,11.2278657 2.06482159,11.4618139 1.83980274,11.5278908 C1.6147839,11.5939678 1.38083573,11.4653856 1.31654463,11.2421526 C1.10402683,10.515306 0.996875,9.75809973 0.996875,8.99375 C0.996875,4.58445213 4.58288963,0.9984375 8.9921875,0.9984375 C13.4014854,0.9984375 16.9875,4.58445213 16.9875,8.99375 C16.9857141,13.4030479 13.3996995,16.9890625 8.99040164,16.9890625 Z" id="Path" fill="#333333"></path>
                </g>
            </g>
        </g>
    </g>
</svg>