<?xml version="1.0" encoding="UTF-8"?>
<svg width="16px" height="18px" viewBox="0 0 16 18" version="1.1" xmlns="http://www.w3.org/2000/svg" xmlns:xlink="http://www.w3.org/1999/xlink">
    <!-- Generator: Sketch 54.1 (76490) - https://sketchapp.com -->
    <title>icon/我的/反馈建议</title>
    <desc>Created with Sketch.</desc>
    <g id="一席移动设计" stroke="none" stroke-width="1" fill="none" fill-rule="evenodd">
        <g id="规范/切图画板" transform="translate(-355.000000, -321.000000)">
            <g id="icon/我的/反馈建议/常规" transform="translate(353.000000, 320.000000)">
                <g id="反馈选中" transform="translate(2.000000, 1.000000)">
                    <rect id="Rectangle" fill="#000000" opacity="0" x="0" y="0" width="16" height="18"></rect>
                    <path d="M5,13.5 C4.99990271,15.1076627 5.85757658,16.593246 7.24992138,17.3971054 C8.64226619,18.2009649 10.3577338,18.2009649 11.7500786,17.3971054 C13.1424234,16.593246 14.0000973,15.1076627 14,13.5 C14.0000973,11.8923373 13.1424234,10.406754 11.7500786,9.60289459 C10.3577338,8.79903514 8.64226619,8.79903514 7.24992138,9.60289459 C5.85757658,10.406754 4.99990271,11.8923373 5,13.5 Z" id="Path" fill="#D0D0D0"></path>
                    <path d="M7.65555637,9.93023255 L3.45420063,9.93023255 C3.22710033,9.93023255 3,9.69767442 3,9.46511629 C3,9.23255816 3.2271003,9 3.45420063,9 L7.65555637,9 C7.88265667,9 8.109757,9.23255813 8.10975697,9.46511629 C8.10975694,9.69767444 7.88265667,9.93023257 7.65555637,9.93023255 Z M11.5162616,14 L3.45420063,14 C3.22710033,14 3,13.7674419 3,13.5348837 C3,13.3023256 3.2271003,13.0697674 3.45420063,13.0697674 L11.5162616,13.0697674 C11.7433619,13.0697674 11.9704622,13.3023256 11.9704622,13.5348837 C12.0840124,13.7674418 11.8569121,14 11.5162616,14 Z" id="Shape" fill="#000000" fill-rule="nonzero"></path>
                    <path d="M14.4898461,18 L0.479003158,18 C0.239501579,18 -2.80665923e-08,17.7671233 0,17.5342466 L0,1.46575343 C0,1.23287673 0.239501579,1 0.479003158,1 L10.7775715,1 C11.0170731,1 11.2565747,1.2328767 11.2565746,1.46575343 C11.2565746,1.69863016 11.0170731,1.93150687 10.7775715,1.93150684 L1.07775715,1.93150684 L1.07775715,16.8356165 L14.0108429,16.8356165 L14.0108429,6.00684933 C14.0108429,5.77397262 14.2503445,5.54109589 14.4898461,5.54109589 C14.7293477,5.54109589 14.9688493,5.7739726 14.9688493,6.00684933 L14.9688493,17.4178082 C15.0886001,17.7671233 14.8490985,18 14.4898461,18 L14.4898461,18 Z" id="Path" fill="#000000"></path>
                    <path d="M9.50806451,8 C9.39516128,8 9.28225807,8 9.16935483,7.87401574 C8.94354839,7.62204724 8.94354839,7.24409449 9.16935483,7.11811022 L15.1532258,0.188976371 C15.3790323,-0.0629921237 15.7177419,-0.0629921237 15.8306452,0.188976371 C16.0564516,0.440944866 16.0564516,0.818897622 15.8306452,0.944881884 L9.84677419,7.87401574 C9.73387095,7.87401574 9.62096775,8 9.50806451,8 L9.50806451,8 Z" id="Path" fill="#000000"></path>
                </g>
            </g>
        </g>
    </g>
</svg>