<?xml version="1.0" encoding="UTF-8"?>
<svg width="43px" height="44px" viewBox="0 0 43 44" version="1.1" xmlns="http://www.w3.org/2000/svg" xmlns:xlink="http://www.w3.org/1999/xlink">
    <!-- Generator: Sketch 52.6 (67491) - http://www.bohemiancoding.com/sketch -->
    <title>icon/第三方/微信 copy</title>
    <desc>Created with Sketch.</desc>
    <defs>
        <rect id="path-1" x="0" y="0" width="40" height="40" rx="3"></rect>
        <filter x="-4.5%" y="-4.5%" width="109.0%" height="109.0%" filterUnits="objectBoundingBox" id="filter-2">
            <feMorphology radius="0.3" operator="dilate" in="SourceAlpha" result="shadowSpreadOuter1"></feMorphology>
            <feOffset dx="0" dy="0" in="shadowSpreadOuter1" result="shadowOffsetOuter1"></feOffset>
            <feGaussianBlur stdDeviation="0.5" in="shadowOffsetOuter1" result="shadowBlurOuter1"></feGaussianBlur>
            <feComposite in="shadowBlurOuter1" in2="SourceAlpha" operator="out" result="shadowBlurOuter1"></feComposite>
            <feColorMatrix values="0 0 0 0 0.759589101   0 0 0 0 0.787563015   0 0 0 0 0.843510842  0 0 0 0.397248641 0" type="matrix" in="shadowBlurOuter1"></feColorMatrix>
        </filter>
    </defs>
    <g id="一席H5" stroke="none" stroke-width="1" fill="none" fill-rule="evenodd">
        <g id="规范/切图画板" transform="translate(-13.000000, -485.000000)">
            <g id="icon/第三方/微信/灰" transform="translate(15.000000, 487.000000)">
                <g id="Group-3-Copy">
                    <g id="Rectangle-Copy-2" opacity="0.900000036">
                        <use fill="black" fill-opacity="1" filter="url(#filter-2)" xlink:href="#path-1"></use>
                        <rect stroke-opacity="0.397248641" stroke="#C2C9D7" stroke-width="0.3" fill="#BDBDBD" fill-rule="evenodd" x="-0.15" y="-0.15" width="40.3" height="40.3" rx="3"></rect>
                    </g>
                    <g id="微信" transform="translate(8.000000, 8.000000)">
                        <rect id="Rectangle" fill="#000000" opacity="0" x="0" y="0.390625" width="24" height="24.21875"></rect>
                        <path d="M24,15.1970028 C24,11.7730253 20.7192871,8.984375 17.0369017,8.984375 C13.1362664,8.984375 10.0645161,11.7754502 10.0645161,15.1970028 C10.0645161,18.6258302 13.1362664,21.4096306 17.0369017,21.4096306 C17.8541776,21.4096306 18.678419,21.1938133 19.4980168,20.980421 L21.7455257,22.265625 L21.1279251,20.1268515 C22.7740861,18.8367976 24,17.1272338 24,15.1970028 Z M14.8799432,14.2464368 C14.366824,14.2464368 13.9512206,13.8123773 13.9512206,13.2764715 C13.9512206,12.7405657 14.366824,12.3065062 14.8799432,12.3065062 C15.3930625,12.3065062 15.8086659,12.7405657 15.8086659,13.2764715 C15.8086659,13.8099524 15.3930625,14.2464368 14.8799432,14.2464368 Z M19.3912137,14.2391621 C18.8780944,14.2391621 18.462491,13.8051026 18.462491,13.2691968 C18.462491,12.7332909 18.8780944,12.2992314 19.3912137,12.2992314 C19.904333,12.2992314 20.3199364,12.7332909 20.3199364,13.2691968 C20.3199364,13.8051026 19.904333,14.2391621 19.3912137,14.2391621 Z" id="Shape" fill="#FFFFFF" fill-rule="nonzero"></path>
                        <path d="M8.86655693,1.953125 C4.41816346,1.953125 0.774193548,5.15856383 0.774193548,9.22896234 C0.774193548,11.5791329 1.98655838,13.5077265 4.01251398,15.0050517 L3.20350683,17.578125 L6.03159417,16.078377 C7.04457197,16.2891655 7.85587093,16.5072225 8.86655693,16.5072225 C9.12094728,16.5072225 9.37304583,16.4951083 9.62285257,16.4733025 C9.46471803,15.9015085 9.37304583,15.303063 9.37304583,14.6803889 C9.37304583,10.9419217 12.4096874,7.90850568 16.2530444,7.90850568 C16.5166019,7.90850568 16.7755759,7.92788853 17.0322581,7.95938566 C16.3309657,4.51408406 12.8451304,1.953125 8.86655693,1.953125 Z M6.14847622,7.82370571 C5.5411479,7.82370571 5.04840983,7.30279161 5.04840983,6.66073471 C5.04840983,6.0186778 5.5411479,5.4977637 6.14847622,5.4977637 C6.75580454,5.4977637 7.24854261,6.0186778 7.24854261,6.66073471 C7.24854261,7.30279161 6.75580454,7.82370571 6.14847622,7.82370571 Z M11.8000673,7.82370571 C11.192739,7.82370571 10.7000009,7.30279161 10.7000009,6.66073471 C10.7000009,6.0186778 11.192739,5.4977637 11.8000673,5.4977637 C12.4073956,5.4977637 12.9001337,6.0186778 12.9001337,6.66073471 C12.9001337,7.30279161 12.4073956,7.82370571 11.8000673,7.82370571 Z" id="Shape" fill="#FFFFFF" fill-rule="nonzero"></path>
                    </g>
                </g>
            </g>
        </g>
    </g>
</svg>