<?xml version="1.0" encoding="UTF-8"?>
<svg width="16px" height="14px" viewBox="0 0 16 14" version="1.1" xmlns="http://www.w3.org/2000/svg" xmlns:xlink="http://www.w3.org/1999/xlink">
    <!-- Generator: Sketch 54.1 (76490) - https://sketchapp.com -->
    <title>icon/全局/引号/常规</title>
    <desc>Created with Sketch.</desc>
    <g id="一席移动设计" stroke="none" stroke-width="1" fill="none" fill-rule="evenodd">
        <g id="规范/切图画板" transform="translate(-320.000000, -446.000000)">
            <g id="icon/全局/引号/常规" transform="translate(320.000000, 446.000000)">
                <g id="引号">
                    <rect id="Rectangle" fill="#000000" opacity="0" x="0" y="0" width="14.5506217" height="14.5506217"></rect>
                    <path d="M15.99148,13.8233028 L9.25948696,13.8233028 L9.25948696,8.96776276 C9.25948696,6.98688477 9.43117823,5.43280563 9.77456806,4.30547682 C10.1179567,3.17814799 10.475052,2.42558379 11.409391,1.52372048 C12.3437289,0.621858401 12.9920112,0.351226544 14.3634582,0 L15.3215767,2.06081789 C14.3634582,2.42695518 13.7797419,2.59025559 12.8794512,3.52432306 C11.9791606,4.45839051 11.9127552,5.36184831 11.9127552,6.13838346 L15.99148,6.13838346 L15.99148,13.8233028 Z M6.73199426,13.8233028 L0,13.8233028 L0,8.96776276 C0,6.98688477 0.17169249,5.43280563 0.515081094,4.30547682 C0.85847092,3.17814799 1.21556621,2.42558379 2.14990407,1.52372048 C3.08424314,0.621858401 3.73252426,0.351226544 5.10397249,0 L6.06208971,2.06081789 C5.10397249,2.42695518 4.52025491,2.59025559 3.61996429,3.52432306 C2.71967368,4.45839051 2.65326828,5.36184831 2.65326828,6.13838346 L6.73199426,6.13838346 L6.73199426,13.8233028 Z" id="Shape" fill="#6F6F6F"></path>
                </g>
            </g>
        </g>
    </g>
</svg>